M48
; DRILL file KiCad 10.0.1 date 2026-04-29T20:05:56
; FORMAT={-:-/ absolute / metric / decimal}
; #@! TF.CreationDate,2026-04-29T20:05:56+02:00
; #@! TF.GenerationSoftware,Kicad,Pcbnew,10.0.1
; #@! TF.FileFunction,Plated,1,2,PTH
FMAT,2
METRIC
; #@! TA.AperFunction,Plated,PTH,ViaDrill
T1C0.400
; #@! TA.AperFunction,Plated,PTH,ComponentDrill
T2C0.800
; #@! TA.AperFunction,Plated,PTH,ComponentDrill
T3C0.950
; #@! TA.AperFunction,Plated,PTH,ComponentDrill
T4C1.000
; #@! TA.AperFunction,Plated,PTH,ComponentDrill
T5C1.020
; #@! TA.AperFunction,Plated,PTH,ComponentDrill
T6C1.300
; #@! TA.AperFunction,Plated,PTH,ComponentDrill
T7C4.300
%
G90
G05
T1
X117.012Y-84.025
X125.0Y-96.434
X134.0Y-79.0
X138.954Y-80.715
X141.707Y-77.733
X141.707Y-112.333
X149.943Y-88.009
X150.047Y-82.176
X150.246Y-97.167
X153.629Y-77.733
X153.891Y-89.5
X157.37Y-85.61
X157.603Y-70.044
X157.603Y-96.768
X169.526Y-81.577
X175.976Y-78.2
X177.144Y-77.733
X177.144Y-96.955
X201.318Y-77.733
X201.32Y-85.422
X202.38Y-84.349
X205.294Y-109.214
X209.204Y-89.134
X210.5Y-81.0
X213.0Y-71.5
X213.0Y-91.0
X219.5Y-75.0
X224.715Y-96.506
X226.331Y-84.242
T2
X153.46Y-56.495
X156.0Y-56.495
X158.54Y-56.495
X185.69Y-56.5
X193.31Y-56.5
X198.0Y-56.5
X205.62Y-56.5
T3
X216.2Y-72.25
X216.2Y-74.75
X216.2Y-77.25
X216.2Y-79.75
X216.2Y-82.25
X216.2Y-84.75
X216.2Y-87.25
X216.2Y-89.75
X216.2Y-92.25
X216.2Y-94.75
X228.5Y-72.0
X228.5Y-74.5
X228.5Y-77.0
X228.5Y-79.5
X228.5Y-82.0
X228.5Y-84.5
X228.5Y-87.0
X228.5Y-89.5
X228.5Y-92.0
X228.5Y-94.5
T4
X118.7Y-70.25
X118.7Y-72.75
X135.0Y-89.11
X135.0Y-91.65
X135.0Y-94.19
X135.0Y-96.73
X135.0Y-99.27
X135.0Y-101.81
X135.0Y-104.35
X140.08Y-87.84
X140.08Y-90.38
X140.08Y-92.92
X140.08Y-95.46
X140.08Y-98.0
X140.08Y-100.54
X140.08Y-103.08
X140.08Y-105.62
T5
X179.8Y-69.955
X179.8Y-72.495
X179.8Y-75.035
X179.8Y-77.575
X179.8Y-80.115
X179.8Y-82.655
X179.8Y-85.195
X179.8Y-87.735
X179.8Y-90.275
X179.8Y-92.815
X179.8Y-95.355
X179.8Y-97.895
X179.8Y-100.435
X179.8Y-102.975
X179.8Y-105.515
X205.2Y-69.955
X205.2Y-72.495
X205.2Y-75.035
X205.2Y-77.575
X205.2Y-80.115
X205.2Y-82.655
X205.2Y-85.195
X205.2Y-87.735
X205.2Y-90.275
X205.2Y-92.815
X205.2Y-95.355
X205.2Y-97.895
X205.2Y-100.435
X205.2Y-102.975
X205.2Y-105.515
T6
X149.75Y-109.468
X154.75Y-109.468
X164.25Y-109.737
X169.25Y-109.737
T7
G00X121.05Y-58.0
M15
G01X122.95Y-58.0
M16
G05
G00X121.55Y-109.5
M15
G01X123.45Y-109.5
M16
G05
G00X223.55Y-57.5
M15
G01X225.45Y-57.5
M16
G05
G00X223.55Y-109.0
M15
G01X225.45Y-109.0
M16
G05
M30
