%TF.GenerationSoftware,KiCad,Pcbnew,10.0.1*%
%TF.CreationDate,2026-04-27T19:32:29+02:00*%
%TF.ProjectId,iot,696f742e-6b69-4636-9164-5f7063625858,rev?*%
%TF.SameCoordinates,Original*%
%TF.FileFunction,Copper,L1,Top*%
%TF.FilePolarity,Positive*%
%FSLAX46Y46*%
G04 Gerber Fmt 4.6, Leading zero omitted, Abs format (unit mm)*
G04 Created by KiCad (PCBNEW 10.0.1) date 2026-04-27 19:32:29*
%MOMM*%
%LPD*%
G01*
G04 APERTURE LIST*
G04 Aperture macros list*
%AMRoundRect*
0 Rectangle with rounded corners*
0 $1 Rounding radius*
0 $2 $3 $4 $5 $6 $7 $8 $9 X,Y pos of 4 corners*
0 Add a 4 corners polygon primitive as box body*
4,1,4,$2,$3,$4,$5,$6,$7,$8,$9,$2,$3,0*
0 Add four circle primitives for the rounded corners*
1,1,$1+$1,$2,$3*
1,1,$1+$1,$4,$5*
1,1,$1+$1,$6,$7*
1,1,$1+$1,$8,$9*
0 Add four rect primitives between the rounded corners*
20,1,$1+$1,$2,$3,$4,$5,0*
20,1,$1+$1,$4,$5,$6,$7,0*
20,1,$1+$1,$6,$7,$8,$9,0*
20,1,$1+$1,$8,$9,$2,$3,0*%
G04 Aperture macros list end*
%ADD10C,0.250000*%
%TA.AperFunction,NonConductor*%
%ADD11C,0.250000*%
%TD*%
%ADD12C,0.300000*%
%TA.AperFunction,NonConductor*%
%ADD13C,0.300000*%
%TD*%
%TA.AperFunction,SMDPad,CuDef*%
%ADD14RoundRect,0.250001X-0.799999X1.999999X-0.799999X-1.999999X0.799999X-1.999999X0.799999X1.999999X0*%
%TD*%
%TA.AperFunction,SMDPad,CuDef*%
%ADD15RoundRect,0.250001X0.799999X-1.999999X0.799999X1.999999X-0.799999X1.999999X-0.799999X-1.999999X0*%
%TD*%
%TA.AperFunction,SMDPad,CuDef*%
%ADD16RoundRect,0.250000X0.300000X-2.050000X0.300000X2.050000X-0.300000X2.050000X-0.300000X-2.050000X0*%
%TD*%
%TA.AperFunction,SMDPad,CuDef*%
%ADD17RoundRect,0.250002X5.149998X-4.449998X5.149998X4.449998X-5.149998X4.449998X-5.149998X-4.449998X0*%
%TD*%
%TA.AperFunction,ComponentPad*%
%ADD18R,1.800000X1.800000*%
%TD*%
%TA.AperFunction,ComponentPad*%
%ADD19C,1.800000*%
%TD*%
%TA.AperFunction,SMDPad,CuDef*%
%ADD20R,5.400000X2.900000*%
%TD*%
%TA.AperFunction,SMDPad,CuDef*%
%ADD21RoundRect,0.250000X1.000000X0.650000X-1.000000X0.650000X-1.000000X-0.650000X1.000000X-0.650000X0*%
%TD*%
%TA.AperFunction,SMDPad,CuDef*%
%ADD22RoundRect,0.120000X0.680000X0.730000X-0.680000X0.730000X-0.680000X-0.730000X0.680000X-0.730000X0*%
%TD*%
%TA.AperFunction,ComponentPad*%
%ADD23RoundRect,0.250000X0.725000X-0.600000X0.725000X0.600000X-0.725000X0.600000X-0.725000X-0.600000X0*%
%TD*%
%TA.AperFunction,ComponentPad*%
%ADD24O,1.950000X1.700000*%
%TD*%
%TA.AperFunction,ComponentPad*%
%ADD25C,2.800000*%
%TD*%
%TA.AperFunction,ComponentPad*%
%ADD26RoundRect,0.250001X-1.149999X-1.149999X1.149999X-1.149999X1.149999X1.149999X-1.149999X1.149999X0*%
%TD*%
%TA.AperFunction,SMDPad,CuDef*%
%ADD27RoundRect,0.120000X-0.730000X0.680000X-0.730000X-0.680000X0.730000X-0.680000X0.730000X0.680000X0*%
%TD*%
%TA.AperFunction,SMDPad,CuDef*%
%ADD28RoundRect,0.250001X1.999999X0.799999X-1.999999X0.799999X-1.999999X-0.799999X1.999999X-0.799999X0*%
%TD*%
%TA.AperFunction,ComponentPad*%
%ADD29C,1.600000*%
%TD*%
%TA.AperFunction,ComponentPad*%
%ADD30RoundRect,0.250000X0.750000X-0.600000X0.750000X0.600000X-0.750000X0.600000X-0.750000X-0.600000X0*%
%TD*%
%TA.AperFunction,ComponentPad*%
%ADD31O,2.000000X1.700000*%
%TD*%
%TA.AperFunction,ComponentPad*%
%ADD32C,1.440000*%
%TD*%
%TA.AperFunction,ComponentPad*%
%ADD33O,10.400000X8.600000*%
%TD*%
%TA.AperFunction,ComponentPad*%
%ADD34R,2.000000X2.000000*%
%TD*%
%TA.AperFunction,ComponentPad*%
%ADD35C,2.000000*%
%TD*%
%TA.AperFunction,ViaPad*%
%ADD36C,0.800000*%
%TD*%
%TA.AperFunction,Conductor*%
%ADD37C,0.250000*%
%TD*%
%TA.AperFunction,Conductor*%
%ADD38C,0.800000*%
%TD*%
G04 APERTURE END LIST*
D10*
D11*
X196259711Y-50254675D02*
X196593044Y-51254675D01*
X196593044Y-51254675D02*
X196926377Y-50254675D01*
X197259711Y-51254675D02*
X197259711Y-50588008D01*
X197259711Y-50254675D02*
X197212092Y-50302294D01*
X197212092Y-50302294D02*
X197259711Y-50349913D01*
X197259711Y-50349913D02*
X197307330Y-50302294D01*
X197307330Y-50302294D02*
X197259711Y-50254675D01*
X197259711Y-50254675D02*
X197259711Y-50349913D01*
X198116853Y-51207056D02*
X198021615Y-51254675D01*
X198021615Y-51254675D02*
X197831139Y-51254675D01*
X197831139Y-51254675D02*
X197735901Y-51207056D01*
X197735901Y-51207056D02*
X197688282Y-51111817D01*
X197688282Y-51111817D02*
X197688282Y-50730865D01*
X197688282Y-50730865D02*
X197735901Y-50635627D01*
X197735901Y-50635627D02*
X197831139Y-50588008D01*
X197831139Y-50588008D02*
X198021615Y-50588008D01*
X198021615Y-50588008D02*
X198116853Y-50635627D01*
X198116853Y-50635627D02*
X198164472Y-50730865D01*
X198164472Y-50730865D02*
X198164472Y-50826103D01*
X198164472Y-50826103D02*
X197688282Y-50921341D01*
X198497806Y-50588008D02*
X198688282Y-51254675D01*
X198688282Y-51254675D02*
X198878758Y-50778484D01*
X198878758Y-50778484D02*
X199069234Y-51254675D01*
X199069234Y-51254675D02*
X199259710Y-50588008D01*
X200354949Y-51207056D02*
X200450187Y-51254675D01*
X200450187Y-51254675D02*
X200640663Y-51254675D01*
X200640663Y-51254675D02*
X200735901Y-51207056D01*
X200735901Y-51207056D02*
X200783520Y-51111817D01*
X200783520Y-51111817D02*
X200783520Y-51064198D01*
X200783520Y-51064198D02*
X200735901Y-50968960D01*
X200735901Y-50968960D02*
X200640663Y-50921341D01*
X200640663Y-50921341D02*
X200497806Y-50921341D01*
X200497806Y-50921341D02*
X200402568Y-50873722D01*
X200402568Y-50873722D02*
X200354949Y-50778484D01*
X200354949Y-50778484D02*
X200354949Y-50730865D01*
X200354949Y-50730865D02*
X200402568Y-50635627D01*
X200402568Y-50635627D02*
X200497806Y-50588008D01*
X200497806Y-50588008D02*
X200640663Y-50588008D01*
X200640663Y-50588008D02*
X200735901Y-50635627D01*
X201640663Y-51207056D02*
X201545425Y-51254675D01*
X201545425Y-51254675D02*
X201354949Y-51254675D01*
X201354949Y-51254675D02*
X201259711Y-51207056D01*
X201259711Y-51207056D02*
X201212092Y-51159436D01*
X201212092Y-51159436D02*
X201164473Y-51064198D01*
X201164473Y-51064198D02*
X201164473Y-50778484D01*
X201164473Y-50778484D02*
X201212092Y-50683246D01*
X201212092Y-50683246D02*
X201259711Y-50635627D01*
X201259711Y-50635627D02*
X201354949Y-50588008D01*
X201354949Y-50588008D02*
X201545425Y-50588008D01*
X201545425Y-50588008D02*
X201640663Y-50635627D01*
X202069235Y-51254675D02*
X202069235Y-50254675D01*
X202497806Y-51254675D02*
X202497806Y-50730865D01*
X202497806Y-50730865D02*
X202450187Y-50635627D01*
X202450187Y-50635627D02*
X202354949Y-50588008D01*
X202354949Y-50588008D02*
X202212092Y-50588008D01*
X202212092Y-50588008D02*
X202116854Y-50635627D01*
X202116854Y-50635627D02*
X202069235Y-50683246D01*
X203354949Y-51207056D02*
X203259711Y-51254675D01*
X203259711Y-51254675D02*
X203069235Y-51254675D01*
X203069235Y-51254675D02*
X202973997Y-51207056D01*
X202973997Y-51207056D02*
X202926378Y-51111817D01*
X202926378Y-51111817D02*
X202926378Y-50730865D01*
X202926378Y-50730865D02*
X202973997Y-50635627D01*
X202973997Y-50635627D02*
X203069235Y-50588008D01*
X203069235Y-50588008D02*
X203259711Y-50588008D01*
X203259711Y-50588008D02*
X203354949Y-50635627D01*
X203354949Y-50635627D02*
X203402568Y-50730865D01*
X203402568Y-50730865D02*
X203402568Y-50826103D01*
X203402568Y-50826103D02*
X202926378Y-50921341D01*
X203831140Y-51254675D02*
X203831140Y-50588008D01*
X203831140Y-50683246D02*
X203878759Y-50635627D01*
X203878759Y-50635627D02*
X203973997Y-50588008D01*
X203973997Y-50588008D02*
X204116854Y-50588008D01*
X204116854Y-50588008D02*
X204212092Y-50635627D01*
X204212092Y-50635627D02*
X204259711Y-50730865D01*
X204259711Y-50730865D02*
X204259711Y-51254675D01*
X204259711Y-50730865D02*
X204307330Y-50635627D01*
X204307330Y-50635627D02*
X204402568Y-50588008D01*
X204402568Y-50588008D02*
X204545425Y-50588008D01*
X204545425Y-50588008D02*
X204640664Y-50635627D01*
X204640664Y-50635627D02*
X204688283Y-50730865D01*
X204688283Y-50730865D02*
X204688283Y-51254675D01*
X205593044Y-51254675D02*
X205593044Y-50730865D01*
X205593044Y-50730865D02*
X205545425Y-50635627D01*
X205545425Y-50635627D02*
X205450187Y-50588008D01*
X205450187Y-50588008D02*
X205259711Y-50588008D01*
X205259711Y-50588008D02*
X205164473Y-50635627D01*
X205593044Y-51207056D02*
X205497806Y-51254675D01*
X205497806Y-51254675D02*
X205259711Y-51254675D01*
X205259711Y-51254675D02*
X205164473Y-51207056D01*
X205164473Y-51207056D02*
X205116854Y-51111817D01*
X205116854Y-51111817D02*
X205116854Y-51016579D01*
X205116854Y-51016579D02*
X205164473Y-50921341D01*
X205164473Y-50921341D02*
X205259711Y-50873722D01*
X205259711Y-50873722D02*
X205497806Y-50873722D01*
X205497806Y-50873722D02*
X205593044Y-50826103D01*
X205926378Y-50588008D02*
X206307330Y-50588008D01*
X206069235Y-50254675D02*
X206069235Y-51111817D01*
X206069235Y-51111817D02*
X206116854Y-51207056D01*
X206116854Y-51207056D02*
X206212092Y-51254675D01*
X206212092Y-51254675D02*
X206307330Y-51254675D01*
X206640664Y-51254675D02*
X206640664Y-50588008D01*
X206640664Y-50254675D02*
X206593045Y-50302294D01*
X206593045Y-50302294D02*
X206640664Y-50349913D01*
X206640664Y-50349913D02*
X206688283Y-50302294D01*
X206688283Y-50302294D02*
X206640664Y-50254675D01*
X206640664Y-50254675D02*
X206640664Y-50349913D01*
X207545425Y-51207056D02*
X207450187Y-51254675D01*
X207450187Y-51254675D02*
X207259711Y-51254675D01*
X207259711Y-51254675D02*
X207164473Y-51207056D01*
X207164473Y-51207056D02*
X207116854Y-51159436D01*
X207116854Y-51159436D02*
X207069235Y-51064198D01*
X207069235Y-51064198D02*
X207069235Y-50778484D01*
X207069235Y-50778484D02*
X207116854Y-50683246D01*
X207116854Y-50683246D02*
X207164473Y-50635627D01*
X207164473Y-50635627D02*
X207259711Y-50588008D01*
X207259711Y-50588008D02*
X207450187Y-50588008D01*
X207450187Y-50588008D02*
X207545425Y-50635627D01*
X208593045Y-50588008D02*
X208973997Y-50588008D01*
X208735902Y-51254675D02*
X208735902Y-50397532D01*
X208735902Y-50397532D02*
X208783521Y-50302294D01*
X208783521Y-50302294D02*
X208878759Y-50254675D01*
X208878759Y-50254675D02*
X208973997Y-50254675D01*
X209450188Y-51254675D02*
X209354950Y-51207056D01*
X209354950Y-51207056D02*
X209307331Y-51159436D01*
X209307331Y-51159436D02*
X209259712Y-51064198D01*
X209259712Y-51064198D02*
X209259712Y-50778484D01*
X209259712Y-50778484D02*
X209307331Y-50683246D01*
X209307331Y-50683246D02*
X209354950Y-50635627D01*
X209354950Y-50635627D02*
X209450188Y-50588008D01*
X209450188Y-50588008D02*
X209593045Y-50588008D01*
X209593045Y-50588008D02*
X209688283Y-50635627D01*
X209688283Y-50635627D02*
X209735902Y-50683246D01*
X209735902Y-50683246D02*
X209783521Y-50778484D01*
X209783521Y-50778484D02*
X209783521Y-51064198D01*
X209783521Y-51064198D02*
X209735902Y-51159436D01*
X209735902Y-51159436D02*
X209688283Y-51207056D01*
X209688283Y-51207056D02*
X209593045Y-51254675D01*
X209593045Y-51254675D02*
X209450188Y-51254675D01*
X210212093Y-51254675D02*
X210212093Y-50588008D01*
X210212093Y-50778484D02*
X210259712Y-50683246D01*
X210259712Y-50683246D02*
X210307331Y-50635627D01*
X210307331Y-50635627D02*
X210402569Y-50588008D01*
X210402569Y-50588008D02*
X210497807Y-50588008D01*
X196831139Y-52817000D02*
X196735901Y-52864619D01*
X196735901Y-52864619D02*
X196545425Y-52864619D01*
X196545425Y-52864619D02*
X196450187Y-52817000D01*
X196450187Y-52817000D02*
X196402568Y-52769380D01*
X196402568Y-52769380D02*
X196354949Y-52674142D01*
X196354949Y-52674142D02*
X196354949Y-52388428D01*
X196354949Y-52388428D02*
X196402568Y-52293190D01*
X196402568Y-52293190D02*
X196450187Y-52245571D01*
X196450187Y-52245571D02*
X196545425Y-52197952D01*
X196545425Y-52197952D02*
X196735901Y-52197952D01*
X196735901Y-52197952D02*
X196831139Y-52245571D01*
X197402568Y-52864619D02*
X197307330Y-52817000D01*
X197307330Y-52817000D02*
X197259711Y-52769380D01*
X197259711Y-52769380D02*
X197212092Y-52674142D01*
X197212092Y-52674142D02*
X197212092Y-52388428D01*
X197212092Y-52388428D02*
X197259711Y-52293190D01*
X197259711Y-52293190D02*
X197307330Y-52245571D01*
X197307330Y-52245571D02*
X197402568Y-52197952D01*
X197402568Y-52197952D02*
X197545425Y-52197952D01*
X197545425Y-52197952D02*
X197640663Y-52245571D01*
X197640663Y-52245571D02*
X197688282Y-52293190D01*
X197688282Y-52293190D02*
X197735901Y-52388428D01*
X197735901Y-52388428D02*
X197735901Y-52674142D01*
X197735901Y-52674142D02*
X197688282Y-52769380D01*
X197688282Y-52769380D02*
X197640663Y-52817000D01*
X197640663Y-52817000D02*
X197545425Y-52864619D01*
X197545425Y-52864619D02*
X197402568Y-52864619D01*
X198164473Y-52864619D02*
X198164473Y-52197952D01*
X198164473Y-52293190D02*
X198212092Y-52245571D01*
X198212092Y-52245571D02*
X198307330Y-52197952D01*
X198307330Y-52197952D02*
X198450187Y-52197952D01*
X198450187Y-52197952D02*
X198545425Y-52245571D01*
X198545425Y-52245571D02*
X198593044Y-52340809D01*
X198593044Y-52340809D02*
X198593044Y-52864619D01*
X198593044Y-52340809D02*
X198640663Y-52245571D01*
X198640663Y-52245571D02*
X198735901Y-52197952D01*
X198735901Y-52197952D02*
X198878758Y-52197952D01*
X198878758Y-52197952D02*
X198973997Y-52245571D01*
X198973997Y-52245571D02*
X199021616Y-52340809D01*
X199021616Y-52340809D02*
X199021616Y-52864619D01*
X199497806Y-52197952D02*
X199497806Y-53197952D01*
X199497806Y-52245571D02*
X199593044Y-52197952D01*
X199593044Y-52197952D02*
X199783520Y-52197952D01*
X199783520Y-52197952D02*
X199878758Y-52245571D01*
X199878758Y-52245571D02*
X199926377Y-52293190D01*
X199926377Y-52293190D02*
X199973996Y-52388428D01*
X199973996Y-52388428D02*
X199973996Y-52674142D01*
X199973996Y-52674142D02*
X199926377Y-52769380D01*
X199926377Y-52769380D02*
X199878758Y-52817000D01*
X199878758Y-52817000D02*
X199783520Y-52864619D01*
X199783520Y-52864619D02*
X199593044Y-52864619D01*
X199593044Y-52864619D02*
X199497806Y-52817000D01*
X200545425Y-52864619D02*
X200450187Y-52817000D01*
X200450187Y-52817000D02*
X200402568Y-52769380D01*
X200402568Y-52769380D02*
X200354949Y-52674142D01*
X200354949Y-52674142D02*
X200354949Y-52388428D01*
X200354949Y-52388428D02*
X200402568Y-52293190D01*
X200402568Y-52293190D02*
X200450187Y-52245571D01*
X200450187Y-52245571D02*
X200545425Y-52197952D01*
X200545425Y-52197952D02*
X200688282Y-52197952D01*
X200688282Y-52197952D02*
X200783520Y-52245571D01*
X200783520Y-52245571D02*
X200831139Y-52293190D01*
X200831139Y-52293190D02*
X200878758Y-52388428D01*
X200878758Y-52388428D02*
X200878758Y-52674142D01*
X200878758Y-52674142D02*
X200831139Y-52769380D01*
X200831139Y-52769380D02*
X200783520Y-52817000D01*
X200783520Y-52817000D02*
X200688282Y-52864619D01*
X200688282Y-52864619D02*
X200545425Y-52864619D01*
X201307330Y-52197952D02*
X201307330Y-52864619D01*
X201307330Y-52293190D02*
X201354949Y-52245571D01*
X201354949Y-52245571D02*
X201450187Y-52197952D01*
X201450187Y-52197952D02*
X201593044Y-52197952D01*
X201593044Y-52197952D02*
X201688282Y-52245571D01*
X201688282Y-52245571D02*
X201735901Y-52340809D01*
X201735901Y-52340809D02*
X201735901Y-52864619D01*
X202593044Y-52817000D02*
X202497806Y-52864619D01*
X202497806Y-52864619D02*
X202307330Y-52864619D01*
X202307330Y-52864619D02*
X202212092Y-52817000D01*
X202212092Y-52817000D02*
X202164473Y-52721761D01*
X202164473Y-52721761D02*
X202164473Y-52340809D01*
X202164473Y-52340809D02*
X202212092Y-52245571D01*
X202212092Y-52245571D02*
X202307330Y-52197952D01*
X202307330Y-52197952D02*
X202497806Y-52197952D01*
X202497806Y-52197952D02*
X202593044Y-52245571D01*
X202593044Y-52245571D02*
X202640663Y-52340809D01*
X202640663Y-52340809D02*
X202640663Y-52436047D01*
X202640663Y-52436047D02*
X202164473Y-52531285D01*
X203069235Y-52197952D02*
X203069235Y-52864619D01*
X203069235Y-52293190D02*
X203116854Y-52245571D01*
X203116854Y-52245571D02*
X203212092Y-52197952D01*
X203212092Y-52197952D02*
X203354949Y-52197952D01*
X203354949Y-52197952D02*
X203450187Y-52245571D01*
X203450187Y-52245571D02*
X203497806Y-52340809D01*
X203497806Y-52340809D02*
X203497806Y-52864619D01*
X203831140Y-52197952D02*
X204212092Y-52197952D01*
X203973997Y-51864619D02*
X203973997Y-52721761D01*
X203973997Y-52721761D02*
X204021616Y-52817000D01*
X204021616Y-52817000D02*
X204116854Y-52864619D01*
X204116854Y-52864619D02*
X204212092Y-52864619D01*
X204497807Y-52817000D02*
X204593045Y-52864619D01*
X204593045Y-52864619D02*
X204783521Y-52864619D01*
X204783521Y-52864619D02*
X204878759Y-52817000D01*
X204878759Y-52817000D02*
X204926378Y-52721761D01*
X204926378Y-52721761D02*
X204926378Y-52674142D01*
X204926378Y-52674142D02*
X204878759Y-52578904D01*
X204878759Y-52578904D02*
X204783521Y-52531285D01*
X204783521Y-52531285D02*
X204640664Y-52531285D01*
X204640664Y-52531285D02*
X204545426Y-52483666D01*
X204545426Y-52483666D02*
X204497807Y-52388428D01*
X204497807Y-52388428D02*
X204497807Y-52340809D01*
X204497807Y-52340809D02*
X204545426Y-52245571D01*
X204545426Y-52245571D02*
X204640664Y-52197952D01*
X204640664Y-52197952D02*
X204783521Y-52197952D01*
X204783521Y-52197952D02*
X204878759Y-52245571D01*
X206259712Y-52864619D02*
X206164474Y-52817000D01*
X206164474Y-52817000D02*
X206116855Y-52769380D01*
X206116855Y-52769380D02*
X206069236Y-52674142D01*
X206069236Y-52674142D02*
X206069236Y-52388428D01*
X206069236Y-52388428D02*
X206116855Y-52293190D01*
X206116855Y-52293190D02*
X206164474Y-52245571D01*
X206164474Y-52245571D02*
X206259712Y-52197952D01*
X206259712Y-52197952D02*
X206402569Y-52197952D01*
X206402569Y-52197952D02*
X206497807Y-52245571D01*
X206497807Y-52245571D02*
X206545426Y-52293190D01*
X206545426Y-52293190D02*
X206593045Y-52388428D01*
X206593045Y-52388428D02*
X206593045Y-52674142D01*
X206593045Y-52674142D02*
X206545426Y-52769380D01*
X206545426Y-52769380D02*
X206497807Y-52817000D01*
X206497807Y-52817000D02*
X206402569Y-52864619D01*
X206402569Y-52864619D02*
X206259712Y-52864619D01*
X207021617Y-52864619D02*
X207021617Y-52197952D01*
X207021617Y-52388428D02*
X207069236Y-52293190D01*
X207069236Y-52293190D02*
X207116855Y-52245571D01*
X207116855Y-52245571D02*
X207212093Y-52197952D01*
X207212093Y-52197952D02*
X207307331Y-52197952D01*
X207640665Y-52864619D02*
X207640665Y-52197952D01*
X207640665Y-51864619D02*
X207593046Y-51912238D01*
X207593046Y-51912238D02*
X207640665Y-51959857D01*
X207640665Y-51959857D02*
X207688284Y-51912238D01*
X207688284Y-51912238D02*
X207640665Y-51864619D01*
X207640665Y-51864619D02*
X207640665Y-51959857D01*
X208497807Y-52817000D02*
X208402569Y-52864619D01*
X208402569Y-52864619D02*
X208212093Y-52864619D01*
X208212093Y-52864619D02*
X208116855Y-52817000D01*
X208116855Y-52817000D02*
X208069236Y-52721761D01*
X208069236Y-52721761D02*
X208069236Y-52340809D01*
X208069236Y-52340809D02*
X208116855Y-52245571D01*
X208116855Y-52245571D02*
X208212093Y-52197952D01*
X208212093Y-52197952D02*
X208402569Y-52197952D01*
X208402569Y-52197952D02*
X208497807Y-52245571D01*
X208497807Y-52245571D02*
X208545426Y-52340809D01*
X208545426Y-52340809D02*
X208545426Y-52436047D01*
X208545426Y-52436047D02*
X208069236Y-52531285D01*
X208973998Y-52197952D02*
X208973998Y-52864619D01*
X208973998Y-52293190D02*
X209021617Y-52245571D01*
X209021617Y-52245571D02*
X209116855Y-52197952D01*
X209116855Y-52197952D02*
X209259712Y-52197952D01*
X209259712Y-52197952D02*
X209354950Y-52245571D01*
X209354950Y-52245571D02*
X209402569Y-52340809D01*
X209402569Y-52340809D02*
X209402569Y-52864619D01*
X209735903Y-52197952D02*
X210116855Y-52197952D01*
X209878760Y-51864619D02*
X209878760Y-52721761D01*
X209878760Y-52721761D02*
X209926379Y-52817000D01*
X209926379Y-52817000D02*
X210021617Y-52864619D01*
X210021617Y-52864619D02*
X210116855Y-52864619D01*
X210878760Y-52864619D02*
X210878760Y-52340809D01*
X210878760Y-52340809D02*
X210831141Y-52245571D01*
X210831141Y-52245571D02*
X210735903Y-52197952D01*
X210735903Y-52197952D02*
X210545427Y-52197952D01*
X210545427Y-52197952D02*
X210450189Y-52245571D01*
X210878760Y-52817000D02*
X210783522Y-52864619D01*
X210783522Y-52864619D02*
X210545427Y-52864619D01*
X210545427Y-52864619D02*
X210450189Y-52817000D01*
X210450189Y-52817000D02*
X210402570Y-52721761D01*
X210402570Y-52721761D02*
X210402570Y-52626523D01*
X210402570Y-52626523D02*
X210450189Y-52531285D01*
X210450189Y-52531285D02*
X210545427Y-52483666D01*
X210545427Y-52483666D02*
X210783522Y-52483666D01*
X210783522Y-52483666D02*
X210878760Y-52436047D01*
X211212094Y-52197952D02*
X211593046Y-52197952D01*
X211354951Y-51864619D02*
X211354951Y-52721761D01*
X211354951Y-52721761D02*
X211402570Y-52817000D01*
X211402570Y-52817000D02*
X211497808Y-52864619D01*
X211497808Y-52864619D02*
X211593046Y-52864619D01*
X211926380Y-52864619D02*
X211926380Y-52197952D01*
X211926380Y-51864619D02*
X211878761Y-51912238D01*
X211878761Y-51912238D02*
X211926380Y-51959857D01*
X211926380Y-51959857D02*
X211973999Y-51912238D01*
X211973999Y-51912238D02*
X211926380Y-51864619D01*
X211926380Y-51864619D02*
X211926380Y-51959857D01*
X212545427Y-52864619D02*
X212450189Y-52817000D01*
X212450189Y-52817000D02*
X212402570Y-52769380D01*
X212402570Y-52769380D02*
X212354951Y-52674142D01*
X212354951Y-52674142D02*
X212354951Y-52388428D01*
X212354951Y-52388428D02*
X212402570Y-52293190D01*
X212402570Y-52293190D02*
X212450189Y-52245571D01*
X212450189Y-52245571D02*
X212545427Y-52197952D01*
X212545427Y-52197952D02*
X212688284Y-52197952D01*
X212688284Y-52197952D02*
X212783522Y-52245571D01*
X212783522Y-52245571D02*
X212831141Y-52293190D01*
X212831141Y-52293190D02*
X212878760Y-52388428D01*
X212878760Y-52388428D02*
X212878760Y-52674142D01*
X212878760Y-52674142D02*
X212831141Y-52769380D01*
X212831141Y-52769380D02*
X212783522Y-52817000D01*
X212783522Y-52817000D02*
X212688284Y-52864619D01*
X212688284Y-52864619D02*
X212545427Y-52864619D01*
X213307332Y-52197952D02*
X213307332Y-52864619D01*
X213307332Y-52293190D02*
X213354951Y-52245571D01*
X213354951Y-52245571D02*
X213450189Y-52197952D01*
X213450189Y-52197952D02*
X213593046Y-52197952D01*
X213593046Y-52197952D02*
X213688284Y-52245571D01*
X213688284Y-52245571D02*
X213735903Y-52340809D01*
X213735903Y-52340809D02*
X213735903Y-52864619D01*
X214212094Y-52769380D02*
X214259713Y-52817000D01*
X214259713Y-52817000D02*
X214212094Y-52864619D01*
X214212094Y-52864619D02*
X214164475Y-52817000D01*
X214164475Y-52817000D02*
X214212094Y-52769380D01*
X214212094Y-52769380D02*
X214212094Y-52864619D01*
D12*
D13*
X162554510Y-77300828D02*
X162554510Y-75800828D01*
X163483082Y-77300828D02*
X163340225Y-77229400D01*
X163340225Y-77229400D02*
X163268796Y-77157971D01*
X163268796Y-77157971D02*
X163197368Y-77015114D01*
X163197368Y-77015114D02*
X163197368Y-76586542D01*
X163197368Y-76586542D02*
X163268796Y-76443685D01*
X163268796Y-76443685D02*
X163340225Y-76372257D01*
X163340225Y-76372257D02*
X163483082Y-76300828D01*
X163483082Y-76300828D02*
X163697368Y-76300828D01*
X163697368Y-76300828D02*
X163840225Y-76372257D01*
X163840225Y-76372257D02*
X163911654Y-76443685D01*
X163911654Y-76443685D02*
X163983082Y-76586542D01*
X163983082Y-76586542D02*
X163983082Y-77015114D01*
X163983082Y-77015114D02*
X163911654Y-77157971D01*
X163911654Y-77157971D02*
X163840225Y-77229400D01*
X163840225Y-77229400D02*
X163697368Y-77300828D01*
X163697368Y-77300828D02*
X163483082Y-77300828D01*
X164411654Y-75800828D02*
X165268797Y-75800828D01*
X164840225Y-77300828D02*
X164840225Y-75800828D01*
X167768796Y-77300828D02*
X167268796Y-76586542D01*
X166911653Y-77300828D02*
X166911653Y-75800828D01*
X166911653Y-75800828D02*
X167483082Y-75800828D01*
X167483082Y-75800828D02*
X167625939Y-75872257D01*
X167625939Y-75872257D02*
X167697368Y-75943685D01*
X167697368Y-75943685D02*
X167768796Y-76086542D01*
X167768796Y-76086542D02*
X167768796Y-76300828D01*
X167768796Y-76300828D02*
X167697368Y-76443685D01*
X167697368Y-76443685D02*
X167625939Y-76515114D01*
X167625939Y-76515114D02*
X167483082Y-76586542D01*
X167483082Y-76586542D02*
X166911653Y-76586542D01*
X168625939Y-77300828D02*
X168483082Y-77229400D01*
X168483082Y-77229400D02*
X168411653Y-77157971D01*
X168411653Y-77157971D02*
X168340225Y-77015114D01*
X168340225Y-77015114D02*
X168340225Y-76586542D01*
X168340225Y-76586542D02*
X168411653Y-76443685D01*
X168411653Y-76443685D02*
X168483082Y-76372257D01*
X168483082Y-76372257D02*
X168625939Y-76300828D01*
X168625939Y-76300828D02*
X168840225Y-76300828D01*
X168840225Y-76300828D02*
X168983082Y-76372257D01*
X168983082Y-76372257D02*
X169054511Y-76443685D01*
X169054511Y-76443685D02*
X169125939Y-76586542D01*
X169125939Y-76586542D02*
X169125939Y-77015114D01*
X169125939Y-77015114D02*
X169054511Y-77157971D01*
X169054511Y-77157971D02*
X168983082Y-77229400D01*
X168983082Y-77229400D02*
X168840225Y-77300828D01*
X168840225Y-77300828D02*
X168625939Y-77300828D01*
X169768796Y-77300828D02*
X169768796Y-75800828D01*
X169768796Y-76372257D02*
X169911654Y-76300828D01*
X169911654Y-76300828D02*
X170197368Y-76300828D01*
X170197368Y-76300828D02*
X170340225Y-76372257D01*
X170340225Y-76372257D02*
X170411654Y-76443685D01*
X170411654Y-76443685D02*
X170483082Y-76586542D01*
X170483082Y-76586542D02*
X170483082Y-77015114D01*
X170483082Y-77015114D02*
X170411654Y-77157971D01*
X170411654Y-77157971D02*
X170340225Y-77229400D01*
X170340225Y-77229400D02*
X170197368Y-77300828D01*
X170197368Y-77300828D02*
X169911654Y-77300828D01*
X169911654Y-77300828D02*
X169768796Y-77229400D01*
X171340225Y-77300828D02*
X171197368Y-77229400D01*
X171197368Y-77229400D02*
X171125939Y-77157971D01*
X171125939Y-77157971D02*
X171054511Y-77015114D01*
X171054511Y-77015114D02*
X171054511Y-76586542D01*
X171054511Y-76586542D02*
X171125939Y-76443685D01*
X171125939Y-76443685D02*
X171197368Y-76372257D01*
X171197368Y-76372257D02*
X171340225Y-76300828D01*
X171340225Y-76300828D02*
X171554511Y-76300828D01*
X171554511Y-76300828D02*
X171697368Y-76372257D01*
X171697368Y-76372257D02*
X171768797Y-76443685D01*
X171768797Y-76443685D02*
X171840225Y-76586542D01*
X171840225Y-76586542D02*
X171840225Y-77015114D01*
X171840225Y-77015114D02*
X171768797Y-77157971D01*
X171768797Y-77157971D02*
X171697368Y-77229400D01*
X171697368Y-77229400D02*
X171554511Y-77300828D01*
X171554511Y-77300828D02*
X171340225Y-77300828D01*
X172268797Y-76300828D02*
X172840225Y-76300828D01*
X172483082Y-75800828D02*
X172483082Y-77086542D01*
X172483082Y-77086542D02*
X172554511Y-77229400D01*
X172554511Y-77229400D02*
X172697368Y-77300828D01*
X172697368Y-77300828D02*
X172840225Y-77300828D01*
D12*
D13*
X164483082Y-72443685D02*
X164554510Y-72372257D01*
X164554510Y-72372257D02*
X164697368Y-72300828D01*
X164697368Y-72300828D02*
X165054510Y-72300828D01*
X165054510Y-72300828D02*
X165197368Y-72372257D01*
X165197368Y-72372257D02*
X165268796Y-72443685D01*
X165268796Y-72443685D02*
X165340225Y-72586542D01*
X165340225Y-72586542D02*
X165340225Y-72729400D01*
X165340225Y-72729400D02*
X165268796Y-72943685D01*
X165268796Y-72943685D02*
X164411653Y-73800828D01*
X164411653Y-73800828D02*
X165340225Y-73800828D01*
X166268796Y-72300828D02*
X166411653Y-72300828D01*
X166411653Y-72300828D02*
X166554510Y-72372257D01*
X166554510Y-72372257D02*
X166625939Y-72443685D01*
X166625939Y-72443685D02*
X166697367Y-72586542D01*
X166697367Y-72586542D02*
X166768796Y-72872257D01*
X166768796Y-72872257D02*
X166768796Y-73229400D01*
X166768796Y-73229400D02*
X166697367Y-73515114D01*
X166697367Y-73515114D02*
X166625939Y-73657971D01*
X166625939Y-73657971D02*
X166554510Y-73729400D01*
X166554510Y-73729400D02*
X166411653Y-73800828D01*
X166411653Y-73800828D02*
X166268796Y-73800828D01*
X166268796Y-73800828D02*
X166125939Y-73729400D01*
X166125939Y-73729400D02*
X166054510Y-73657971D01*
X166054510Y-73657971D02*
X165983081Y-73515114D01*
X165983081Y-73515114D02*
X165911653Y-73229400D01*
X165911653Y-73229400D02*
X165911653Y-72872257D01*
X165911653Y-72872257D02*
X165983081Y-72586542D01*
X165983081Y-72586542D02*
X166054510Y-72443685D01*
X166054510Y-72443685D02*
X166125939Y-72372257D01*
X166125939Y-72372257D02*
X166268796Y-72300828D01*
X167340224Y-72443685D02*
X167411652Y-72372257D01*
X167411652Y-72372257D02*
X167554510Y-72300828D01*
X167554510Y-72300828D02*
X167911652Y-72300828D01*
X167911652Y-72300828D02*
X168054510Y-72372257D01*
X168054510Y-72372257D02*
X168125938Y-72443685D01*
X168125938Y-72443685D02*
X168197367Y-72586542D01*
X168197367Y-72586542D02*
X168197367Y-72729400D01*
X168197367Y-72729400D02*
X168125938Y-72943685D01*
X168125938Y-72943685D02*
X167268795Y-73800828D01*
X167268795Y-73800828D02*
X168197367Y-73800828D01*
X169554509Y-72300828D02*
X168840223Y-72300828D01*
X168840223Y-72300828D02*
X168768795Y-73015114D01*
X168768795Y-73015114D02*
X168840223Y-72943685D01*
X168840223Y-72943685D02*
X168983081Y-72872257D01*
X168983081Y-72872257D02*
X169340223Y-72872257D01*
X169340223Y-72872257D02*
X169483081Y-72943685D01*
X169483081Y-72943685D02*
X169554509Y-73015114D01*
X169554509Y-73015114D02*
X169625938Y-73157971D01*
X169625938Y-73157971D02*
X169625938Y-73515114D01*
X169625938Y-73515114D02*
X169554509Y-73657971D01*
X169554509Y-73657971D02*
X169483081Y-73729400D01*
X169483081Y-73729400D02*
X169340223Y-73800828D01*
X169340223Y-73800828D02*
X168983081Y-73800828D01*
X168983081Y-73800828D02*
X168840223Y-73729400D01*
X168840223Y-73729400D02*
X168768795Y-73657971D01*
X170268794Y-73229400D02*
X171411652Y-73229400D01*
X172054509Y-72443685D02*
X172125937Y-72372257D01*
X172125937Y-72372257D02*
X172268795Y-72300828D01*
X172268795Y-72300828D02*
X172625937Y-72300828D01*
X172625937Y-72300828D02*
X172768795Y-72372257D01*
X172768795Y-72372257D02*
X172840223Y-72443685D01*
X172840223Y-72443685D02*
X172911652Y-72586542D01*
X172911652Y-72586542D02*
X172911652Y-72729400D01*
X172911652Y-72729400D02*
X172840223Y-72943685D01*
X172840223Y-72943685D02*
X171983080Y-73800828D01*
X171983080Y-73800828D02*
X172911652Y-73800828D01*
X173840223Y-72300828D02*
X173983080Y-72300828D01*
X173983080Y-72300828D02*
X174125937Y-72372257D01*
X174125937Y-72372257D02*
X174197366Y-72443685D01*
X174197366Y-72443685D02*
X174268794Y-72586542D01*
X174268794Y-72586542D02*
X174340223Y-72872257D01*
X174340223Y-72872257D02*
X174340223Y-73229400D01*
X174340223Y-73229400D02*
X174268794Y-73515114D01*
X174268794Y-73515114D02*
X174197366Y-73657971D01*
X174197366Y-73657971D02*
X174125937Y-73729400D01*
X174125937Y-73729400D02*
X173983080Y-73800828D01*
X173983080Y-73800828D02*
X173840223Y-73800828D01*
X173840223Y-73800828D02*
X173697366Y-73729400D01*
X173697366Y-73729400D02*
X173625937Y-73657971D01*
X173625937Y-73657971D02*
X173554508Y-73515114D01*
X173554508Y-73515114D02*
X173483080Y-73229400D01*
X173483080Y-73229400D02*
X173483080Y-72872257D01*
X173483080Y-72872257D02*
X173554508Y-72586542D01*
X173554508Y-72586542D02*
X173625937Y-72443685D01*
X173625937Y-72443685D02*
X173697366Y-72372257D01*
X173697366Y-72372257D02*
X173840223Y-72300828D01*
X174911651Y-72443685D02*
X174983079Y-72372257D01*
X174983079Y-72372257D02*
X175125937Y-72300828D01*
X175125937Y-72300828D02*
X175483079Y-72300828D01*
X175483079Y-72300828D02*
X175625937Y-72372257D01*
X175625937Y-72372257D02*
X175697365Y-72443685D01*
X175697365Y-72443685D02*
X175768794Y-72586542D01*
X175768794Y-72586542D02*
X175768794Y-72729400D01*
X175768794Y-72729400D02*
X175697365Y-72943685D01*
X175697365Y-72943685D02*
X174840222Y-73800828D01*
X174840222Y-73800828D02*
X175768794Y-73800828D01*
X177054508Y-72300828D02*
X176768793Y-72300828D01*
X176768793Y-72300828D02*
X176625936Y-72372257D01*
X176625936Y-72372257D02*
X176554508Y-72443685D01*
X176554508Y-72443685D02*
X176411650Y-72657971D01*
X176411650Y-72657971D02*
X176340222Y-72943685D01*
X176340222Y-72943685D02*
X176340222Y-73515114D01*
X176340222Y-73515114D02*
X176411650Y-73657971D01*
X176411650Y-73657971D02*
X176483079Y-73729400D01*
X176483079Y-73729400D02*
X176625936Y-73800828D01*
X176625936Y-73800828D02*
X176911650Y-73800828D01*
X176911650Y-73800828D02*
X177054508Y-73729400D01*
X177054508Y-73729400D02*
X177125936Y-73657971D01*
X177125936Y-73657971D02*
X177197365Y-73515114D01*
X177197365Y-73515114D02*
X177197365Y-73157971D01*
X177197365Y-73157971D02*
X177125936Y-73015114D01*
X177125936Y-73015114D02*
X177054508Y-72943685D01*
X177054508Y-72943685D02*
X176911650Y-72872257D01*
X176911650Y-72872257D02*
X176625936Y-72872257D01*
X176625936Y-72872257D02*
X176483079Y-72943685D01*
X176483079Y-72943685D02*
X176411650Y-73015114D01*
X176411650Y-73015114D02*
X176340222Y-73157971D01*
D10*
D11*
X145331139Y-115697952D02*
X145331139Y-116507476D01*
X145331139Y-116507476D02*
X145283520Y-116602714D01*
X145283520Y-116602714D02*
X145235901Y-116650333D01*
X145235901Y-116650333D02*
X145140663Y-116697952D01*
X145140663Y-116697952D02*
X144997806Y-116697952D01*
X144997806Y-116697952D02*
X144902568Y-116650333D01*
X145331139Y-116317000D02*
X145235901Y-116364619D01*
X145235901Y-116364619D02*
X145045425Y-116364619D01*
X145045425Y-116364619D02*
X144950187Y-116317000D01*
X144950187Y-116317000D02*
X144902568Y-116269380D01*
X144902568Y-116269380D02*
X144854949Y-116174142D01*
X144854949Y-116174142D02*
X144854949Y-115888428D01*
X144854949Y-115888428D02*
X144902568Y-115793190D01*
X144902568Y-115793190D02*
X144950187Y-115745571D01*
X144950187Y-115745571D02*
X145045425Y-115697952D01*
X145045425Y-115697952D02*
X145235901Y-115697952D01*
X145235901Y-115697952D02*
X145331139Y-115745571D01*
X145807330Y-116364619D02*
X145807330Y-115697952D01*
X145807330Y-115364619D02*
X145759711Y-115412238D01*
X145759711Y-115412238D02*
X145807330Y-115459857D01*
X145807330Y-115459857D02*
X145854949Y-115412238D01*
X145854949Y-115412238D02*
X145807330Y-115364619D01*
X145807330Y-115364619D02*
X145807330Y-115459857D01*
X146140663Y-115697952D02*
X146521615Y-115697952D01*
X146283520Y-115364619D02*
X146283520Y-116221761D01*
X146283520Y-116221761D02*
X146331139Y-116317000D01*
X146331139Y-116317000D02*
X146426377Y-116364619D01*
X146426377Y-116364619D02*
X146521615Y-116364619D01*
X146854949Y-116364619D02*
X146854949Y-115364619D01*
X147283520Y-116364619D02*
X147283520Y-115840809D01*
X147283520Y-115840809D02*
X147235901Y-115745571D01*
X147235901Y-115745571D02*
X147140663Y-115697952D01*
X147140663Y-115697952D02*
X146997806Y-115697952D01*
X146997806Y-115697952D02*
X146902568Y-115745571D01*
X146902568Y-115745571D02*
X146854949Y-115793190D01*
X148188282Y-115697952D02*
X148188282Y-116364619D01*
X147759711Y-115697952D02*
X147759711Y-116221761D01*
X147759711Y-116221761D02*
X147807330Y-116317000D01*
X147807330Y-116317000D02*
X147902568Y-116364619D01*
X147902568Y-116364619D02*
X148045425Y-116364619D01*
X148045425Y-116364619D02*
X148140663Y-116317000D01*
X148140663Y-116317000D02*
X148188282Y-116269380D01*
X148664473Y-116364619D02*
X148664473Y-115364619D01*
X148664473Y-115745571D02*
X148759711Y-115697952D01*
X148759711Y-115697952D02*
X148950187Y-115697952D01*
X148950187Y-115697952D02*
X149045425Y-115745571D01*
X149045425Y-115745571D02*
X149093044Y-115793190D01*
X149093044Y-115793190D02*
X149140663Y-115888428D01*
X149140663Y-115888428D02*
X149140663Y-116174142D01*
X149140663Y-116174142D02*
X149093044Y-116269380D01*
X149093044Y-116269380D02*
X149045425Y-116317000D01*
X149045425Y-116317000D02*
X148950187Y-116364619D01*
X148950187Y-116364619D02*
X148759711Y-116364619D01*
X148759711Y-116364619D02*
X148664473Y-116317000D01*
X149569235Y-116269380D02*
X149616854Y-116317000D01*
X149616854Y-116317000D02*
X149569235Y-116364619D01*
X149569235Y-116364619D02*
X149521616Y-116317000D01*
X149521616Y-116317000D02*
X149569235Y-116269380D01*
X149569235Y-116269380D02*
X149569235Y-116364619D01*
X150473996Y-116317000D02*
X150378758Y-116364619D01*
X150378758Y-116364619D02*
X150188282Y-116364619D01*
X150188282Y-116364619D02*
X150093044Y-116317000D01*
X150093044Y-116317000D02*
X150045425Y-116269380D01*
X150045425Y-116269380D02*
X149997806Y-116174142D01*
X149997806Y-116174142D02*
X149997806Y-115888428D01*
X149997806Y-115888428D02*
X150045425Y-115793190D01*
X150045425Y-115793190D02*
X150093044Y-115745571D01*
X150093044Y-115745571D02*
X150188282Y-115697952D01*
X150188282Y-115697952D02*
X150378758Y-115697952D01*
X150378758Y-115697952D02*
X150473996Y-115745571D01*
X151045425Y-116364619D02*
X150950187Y-116317000D01*
X150950187Y-116317000D02*
X150902568Y-116269380D01*
X150902568Y-116269380D02*
X150854949Y-116174142D01*
X150854949Y-116174142D02*
X150854949Y-115888428D01*
X150854949Y-115888428D02*
X150902568Y-115793190D01*
X150902568Y-115793190D02*
X150950187Y-115745571D01*
X150950187Y-115745571D02*
X151045425Y-115697952D01*
X151045425Y-115697952D02*
X151188282Y-115697952D01*
X151188282Y-115697952D02*
X151283520Y-115745571D01*
X151283520Y-115745571D02*
X151331139Y-115793190D01*
X151331139Y-115793190D02*
X151378758Y-115888428D01*
X151378758Y-115888428D02*
X151378758Y-116174142D01*
X151378758Y-116174142D02*
X151331139Y-116269380D01*
X151331139Y-116269380D02*
X151283520Y-116317000D01*
X151283520Y-116317000D02*
X151188282Y-116364619D01*
X151188282Y-116364619D02*
X151045425Y-116364619D01*
X151807330Y-116364619D02*
X151807330Y-115697952D01*
X151807330Y-115793190D02*
X151854949Y-115745571D01*
X151854949Y-115745571D02*
X151950187Y-115697952D01*
X151950187Y-115697952D02*
X152093044Y-115697952D01*
X152093044Y-115697952D02*
X152188282Y-115745571D01*
X152188282Y-115745571D02*
X152235901Y-115840809D01*
X152235901Y-115840809D02*
X152235901Y-116364619D01*
X152235901Y-115840809D02*
X152283520Y-115745571D01*
X152283520Y-115745571D02*
X152378758Y-115697952D01*
X152378758Y-115697952D02*
X152521615Y-115697952D01*
X152521615Y-115697952D02*
X152616854Y-115745571D01*
X152616854Y-115745571D02*
X152664473Y-115840809D01*
X152664473Y-115840809D02*
X152664473Y-116364619D01*
X153854948Y-115317000D02*
X152997806Y-116602714D01*
X154616853Y-116364619D02*
X154616853Y-115840809D01*
X154616853Y-115840809D02*
X154569234Y-115745571D01*
X154569234Y-115745571D02*
X154473996Y-115697952D01*
X154473996Y-115697952D02*
X154283520Y-115697952D01*
X154283520Y-115697952D02*
X154188282Y-115745571D01*
X154616853Y-116317000D02*
X154521615Y-116364619D01*
X154521615Y-116364619D02*
X154283520Y-116364619D01*
X154283520Y-116364619D02*
X154188282Y-116317000D01*
X154188282Y-116317000D02*
X154140663Y-116221761D01*
X154140663Y-116221761D02*
X154140663Y-116126523D01*
X154140663Y-116126523D02*
X154188282Y-116031285D01*
X154188282Y-116031285D02*
X154283520Y-115983666D01*
X154283520Y-115983666D02*
X154521615Y-115983666D01*
X154521615Y-115983666D02*
X154616853Y-115936047D01*
X155093044Y-116364619D02*
X155093044Y-115697952D01*
X155093044Y-115888428D02*
X155140663Y-115793190D01*
X155140663Y-115793190D02*
X155188282Y-115745571D01*
X155188282Y-115745571D02*
X155283520Y-115697952D01*
X155283520Y-115697952D02*
X155378758Y-115697952D01*
X155712092Y-116364619D02*
X155712092Y-115697952D01*
X155712092Y-115364619D02*
X155664473Y-115412238D01*
X155664473Y-115412238D02*
X155712092Y-115459857D01*
X155712092Y-115459857D02*
X155759711Y-115412238D01*
X155759711Y-115412238D02*
X155712092Y-115364619D01*
X155712092Y-115364619D02*
X155712092Y-115459857D01*
X156188282Y-116364619D02*
X156188282Y-115364619D01*
X156283520Y-115983666D02*
X156569234Y-116364619D01*
X156569234Y-115697952D02*
X156188282Y-116078904D01*
X156997806Y-115697952D02*
X156997806Y-116364619D01*
X156997806Y-115793190D02*
X157045425Y-115745571D01*
X157045425Y-115745571D02*
X157140663Y-115697952D01*
X157140663Y-115697952D02*
X157283520Y-115697952D01*
X157283520Y-115697952D02*
X157378758Y-115745571D01*
X157378758Y-115745571D02*
X157426377Y-115840809D01*
X157426377Y-115840809D02*
X157426377Y-116364619D01*
X158283520Y-116317000D02*
X158188282Y-116364619D01*
X158188282Y-116364619D02*
X157997806Y-116364619D01*
X157997806Y-116364619D02*
X157902568Y-116317000D01*
X157902568Y-116317000D02*
X157854949Y-116221761D01*
X157854949Y-116221761D02*
X157854949Y-115840809D01*
X157854949Y-115840809D02*
X157902568Y-115745571D01*
X157902568Y-115745571D02*
X157997806Y-115697952D01*
X157997806Y-115697952D02*
X158188282Y-115697952D01*
X158188282Y-115697952D02*
X158283520Y-115745571D01*
X158283520Y-115745571D02*
X158331139Y-115840809D01*
X158331139Y-115840809D02*
X158331139Y-115936047D01*
X158331139Y-115936047D02*
X157854949Y-116031285D01*
X158902568Y-116364619D02*
X158807330Y-116317000D01*
X158807330Y-116317000D02*
X158759711Y-116221761D01*
X158759711Y-116221761D02*
X158759711Y-115364619D01*
X159997806Y-115317000D02*
X159140664Y-116602714D01*
X160331140Y-116364619D02*
X160331140Y-115697952D01*
X160331140Y-115793190D02*
X160378759Y-115745571D01*
X160378759Y-115745571D02*
X160473997Y-115697952D01*
X160473997Y-115697952D02*
X160616854Y-115697952D01*
X160616854Y-115697952D02*
X160712092Y-115745571D01*
X160712092Y-115745571D02*
X160759711Y-115840809D01*
X160759711Y-115840809D02*
X160759711Y-116364619D01*
X160759711Y-115840809D02*
X160807330Y-115745571D01*
X160807330Y-115745571D02*
X160902568Y-115697952D01*
X160902568Y-115697952D02*
X161045425Y-115697952D01*
X161045425Y-115697952D02*
X161140664Y-115745571D01*
X161140664Y-115745571D02*
X161188283Y-115840809D01*
X161188283Y-115840809D02*
X161188283Y-116364619D01*
X162093044Y-115697952D02*
X162093044Y-116697952D01*
X162093044Y-116317000D02*
X161997806Y-116364619D01*
X161997806Y-116364619D02*
X161807330Y-116364619D01*
X161807330Y-116364619D02*
X161712092Y-116317000D01*
X161712092Y-116317000D02*
X161664473Y-116269380D01*
X161664473Y-116269380D02*
X161616854Y-116174142D01*
X161616854Y-116174142D02*
X161616854Y-115888428D01*
X161616854Y-115888428D02*
X161664473Y-115793190D01*
X161664473Y-115793190D02*
X161712092Y-115745571D01*
X161712092Y-115745571D02*
X161807330Y-115697952D01*
X161807330Y-115697952D02*
X161997806Y-115697952D01*
X161997806Y-115697952D02*
X162093044Y-115745571D01*
X162426378Y-115697952D02*
X162807330Y-115697952D01*
X162569235Y-115364619D02*
X162569235Y-116221761D01*
X162569235Y-116221761D02*
X162616854Y-116317000D01*
X162616854Y-116317000D02*
X162712092Y-116364619D01*
X162712092Y-116364619D02*
X162807330Y-116364619D01*
X162997807Y-115697952D02*
X163378759Y-115697952D01*
X163140664Y-115364619D02*
X163140664Y-116221761D01*
X163140664Y-116221761D02*
X163188283Y-116317000D01*
X163188283Y-116317000D02*
X163283521Y-116364619D01*
X163283521Y-116364619D02*
X163378759Y-116364619D01*
X163712093Y-115983666D02*
X164473998Y-115983666D01*
X164854950Y-115697952D02*
X165093045Y-116364619D01*
X165093045Y-116364619D02*
X165331140Y-115697952D01*
X165712093Y-116364619D02*
X165712093Y-115697952D01*
X165712093Y-115364619D02*
X165664474Y-115412238D01*
X165664474Y-115412238D02*
X165712093Y-115459857D01*
X165712093Y-115459857D02*
X165759712Y-115412238D01*
X165759712Y-115412238D02*
X165712093Y-115364619D01*
X165712093Y-115364619D02*
X165712093Y-115459857D01*
X166140664Y-116317000D02*
X166235902Y-116364619D01*
X166235902Y-116364619D02*
X166426378Y-116364619D01*
X166426378Y-116364619D02*
X166521616Y-116317000D01*
X166521616Y-116317000D02*
X166569235Y-116221761D01*
X166569235Y-116221761D02*
X166569235Y-116174142D01*
X166569235Y-116174142D02*
X166521616Y-116078904D01*
X166521616Y-116078904D02*
X166426378Y-116031285D01*
X166426378Y-116031285D02*
X166283521Y-116031285D01*
X166283521Y-116031285D02*
X166188283Y-115983666D01*
X166188283Y-115983666D02*
X166140664Y-115888428D01*
X166140664Y-115888428D02*
X166140664Y-115840809D01*
X166140664Y-115840809D02*
X166188283Y-115745571D01*
X166188283Y-115745571D02*
X166283521Y-115697952D01*
X166283521Y-115697952D02*
X166426378Y-115697952D01*
X166426378Y-115697952D02*
X166521616Y-115745571D01*
X166997807Y-116364619D02*
X166997807Y-115697952D01*
X166997807Y-115364619D02*
X166950188Y-115412238D01*
X166950188Y-115412238D02*
X166997807Y-115459857D01*
X166997807Y-115459857D02*
X167045426Y-115412238D01*
X167045426Y-115412238D02*
X166997807Y-115364619D01*
X166997807Y-115364619D02*
X166997807Y-115459857D01*
X167616854Y-116364619D02*
X167521616Y-116317000D01*
X167521616Y-116317000D02*
X167473997Y-116269380D01*
X167473997Y-116269380D02*
X167426378Y-116174142D01*
X167426378Y-116174142D02*
X167426378Y-115888428D01*
X167426378Y-115888428D02*
X167473997Y-115793190D01*
X167473997Y-115793190D02*
X167521616Y-115745571D01*
X167521616Y-115745571D02*
X167616854Y-115697952D01*
X167616854Y-115697952D02*
X167759711Y-115697952D01*
X167759711Y-115697952D02*
X167854949Y-115745571D01*
X167854949Y-115745571D02*
X167902568Y-115793190D01*
X167902568Y-115793190D02*
X167950187Y-115888428D01*
X167950187Y-115888428D02*
X167950187Y-116174142D01*
X167950187Y-116174142D02*
X167902568Y-116269380D01*
X167902568Y-116269380D02*
X167854949Y-116317000D01*
X167854949Y-116317000D02*
X167759711Y-116364619D01*
X167759711Y-116364619D02*
X167616854Y-116364619D01*
X168378759Y-115697952D02*
X168378759Y-116364619D01*
X168378759Y-115793190D02*
X168426378Y-115745571D01*
X168426378Y-115745571D02*
X168521616Y-115697952D01*
X168521616Y-115697952D02*
X168664473Y-115697952D01*
X168664473Y-115697952D02*
X168759711Y-115745571D01*
X168759711Y-115745571D02*
X168807330Y-115840809D01*
X168807330Y-115840809D02*
X168807330Y-116364619D01*
X169283521Y-115983666D02*
X170045426Y-115983666D01*
X170521616Y-116364619D02*
X170521616Y-115697952D01*
X170521616Y-115888428D02*
X170569235Y-115793190D01*
X170569235Y-115793190D02*
X170616854Y-115745571D01*
X170616854Y-115745571D02*
X170712092Y-115697952D01*
X170712092Y-115697952D02*
X170807330Y-115697952D01*
X171283521Y-116364619D02*
X171188283Y-116317000D01*
X171188283Y-116317000D02*
X171140664Y-116269380D01*
X171140664Y-116269380D02*
X171093045Y-116174142D01*
X171093045Y-116174142D02*
X171093045Y-115888428D01*
X171093045Y-115888428D02*
X171140664Y-115793190D01*
X171140664Y-115793190D02*
X171188283Y-115745571D01*
X171188283Y-115745571D02*
X171283521Y-115697952D01*
X171283521Y-115697952D02*
X171426378Y-115697952D01*
X171426378Y-115697952D02*
X171521616Y-115745571D01*
X171521616Y-115745571D02*
X171569235Y-115793190D01*
X171569235Y-115793190D02*
X171616854Y-115888428D01*
X171616854Y-115888428D02*
X171616854Y-116174142D01*
X171616854Y-116174142D02*
X171569235Y-116269380D01*
X171569235Y-116269380D02*
X171521616Y-116317000D01*
X171521616Y-116317000D02*
X171426378Y-116364619D01*
X171426378Y-116364619D02*
X171283521Y-116364619D01*
X172045426Y-116364619D02*
X172045426Y-115364619D01*
X172045426Y-115745571D02*
X172140664Y-115697952D01*
X172140664Y-115697952D02*
X172331140Y-115697952D01*
X172331140Y-115697952D02*
X172426378Y-115745571D01*
X172426378Y-115745571D02*
X172473997Y-115793190D01*
X172473997Y-115793190D02*
X172521616Y-115888428D01*
X172521616Y-115888428D02*
X172521616Y-116174142D01*
X172521616Y-116174142D02*
X172473997Y-116269380D01*
X172473997Y-116269380D02*
X172426378Y-116317000D01*
X172426378Y-116317000D02*
X172331140Y-116364619D01*
X172331140Y-116364619D02*
X172140664Y-116364619D01*
X172140664Y-116364619D02*
X172045426Y-116317000D01*
X173093045Y-116364619D02*
X172997807Y-116317000D01*
X172997807Y-116317000D02*
X172950188Y-116269380D01*
X172950188Y-116269380D02*
X172902569Y-116174142D01*
X172902569Y-116174142D02*
X172902569Y-115888428D01*
X172902569Y-115888428D02*
X172950188Y-115793190D01*
X172950188Y-115793190D02*
X172997807Y-115745571D01*
X172997807Y-115745571D02*
X173093045Y-115697952D01*
X173093045Y-115697952D02*
X173235902Y-115697952D01*
X173235902Y-115697952D02*
X173331140Y-115745571D01*
X173331140Y-115745571D02*
X173378759Y-115793190D01*
X173378759Y-115793190D02*
X173426378Y-115888428D01*
X173426378Y-115888428D02*
X173426378Y-116174142D01*
X173426378Y-116174142D02*
X173378759Y-116269380D01*
X173378759Y-116269380D02*
X173331140Y-116317000D01*
X173331140Y-116317000D02*
X173235902Y-116364619D01*
X173235902Y-116364619D02*
X173093045Y-116364619D01*
X173712093Y-115697952D02*
X174093045Y-115697952D01*
X173854950Y-115364619D02*
X173854950Y-116221761D01*
X173854950Y-116221761D02*
X173902569Y-116317000D01*
X173902569Y-116317000D02*
X173997807Y-116364619D01*
X173997807Y-116364619D02*
X174093045Y-116364619D01*
D12*
D13*
X209983082Y-61042425D02*
X210697368Y-61042425D01*
X209840225Y-61470996D02*
X210340225Y-59970996D01*
X210340225Y-59970996D02*
X210840225Y-61470996D01*
X211340224Y-61470996D02*
X211340224Y-60470996D01*
X211340224Y-60756710D02*
X211411653Y-60613853D01*
X211411653Y-60613853D02*
X211483082Y-60542425D01*
X211483082Y-60542425D02*
X211625939Y-60470996D01*
X211625939Y-60470996D02*
X211768796Y-60470996D01*
X212268795Y-61470996D02*
X212268795Y-60470996D01*
X212268795Y-59970996D02*
X212197367Y-60042425D01*
X212197367Y-60042425D02*
X212268795Y-60113853D01*
X212268795Y-60113853D02*
X212340224Y-60042425D01*
X212340224Y-60042425D02*
X212268795Y-59970996D01*
X212268795Y-59970996D02*
X212268795Y-60113853D01*
X212983081Y-61470996D02*
X212983081Y-59970996D01*
X213125939Y-60899568D02*
X213554510Y-61470996D01*
X213554510Y-60470996D02*
X212983081Y-61042425D01*
X215340224Y-61470996D02*
X215340224Y-59970996D01*
X215340224Y-59970996D02*
X216197367Y-61470996D01*
X216197367Y-61470996D02*
X216197367Y-59970996D01*
X217483082Y-61399568D02*
X217340225Y-61470996D01*
X217340225Y-61470996D02*
X217054511Y-61470996D01*
X217054511Y-61470996D02*
X216911653Y-61399568D01*
X216911653Y-61399568D02*
X216840225Y-61256710D01*
X216840225Y-61256710D02*
X216840225Y-60685282D01*
X216840225Y-60685282D02*
X216911653Y-60542425D01*
X216911653Y-60542425D02*
X217054511Y-60470996D01*
X217054511Y-60470996D02*
X217340225Y-60470996D01*
X217340225Y-60470996D02*
X217483082Y-60542425D01*
X217483082Y-60542425D02*
X217554511Y-60685282D01*
X217554511Y-60685282D02*
X217554511Y-60828139D01*
X217554511Y-60828139D02*
X216840225Y-60970996D01*
X218411653Y-61470996D02*
X218268796Y-61399568D01*
X218268796Y-61399568D02*
X218197367Y-61256710D01*
X218197367Y-61256710D02*
X218197367Y-59970996D01*
X210054510Y-63885912D02*
X210054510Y-62385912D01*
X210768796Y-62885912D02*
X210768796Y-63885912D01*
X210768796Y-63028769D02*
X210840225Y-62957341D01*
X210840225Y-62957341D02*
X210983082Y-62885912D01*
X210983082Y-62885912D02*
X211197368Y-62885912D01*
X211197368Y-62885912D02*
X211340225Y-62957341D01*
X211340225Y-62957341D02*
X211411654Y-63100198D01*
X211411654Y-63100198D02*
X211411654Y-63885912D01*
X211911654Y-62885912D02*
X212483082Y-62885912D01*
X212125939Y-62385912D02*
X212125939Y-63671626D01*
X212125939Y-63671626D02*
X212197368Y-63814484D01*
X212197368Y-63814484D02*
X212340225Y-63885912D01*
X212340225Y-63885912D02*
X212483082Y-63885912D01*
X213554511Y-63814484D02*
X213411654Y-63885912D01*
X213411654Y-63885912D02*
X213125940Y-63885912D01*
X213125940Y-63885912D02*
X212983082Y-63814484D01*
X212983082Y-63814484D02*
X212911654Y-63671626D01*
X212911654Y-63671626D02*
X212911654Y-63100198D01*
X212911654Y-63100198D02*
X212983082Y-62957341D01*
X212983082Y-62957341D02*
X213125940Y-62885912D01*
X213125940Y-62885912D02*
X213411654Y-62885912D01*
X213411654Y-62885912D02*
X213554511Y-62957341D01*
X213554511Y-62957341D02*
X213625940Y-63100198D01*
X213625940Y-63100198D02*
X213625940Y-63243055D01*
X213625940Y-63243055D02*
X212911654Y-63385912D01*
X214268796Y-63885912D02*
X214268796Y-62885912D01*
X214268796Y-63171626D02*
X214340225Y-63028769D01*
X214340225Y-63028769D02*
X214411654Y-62957341D01*
X214411654Y-62957341D02*
X214554511Y-62885912D01*
X214554511Y-62885912D02*
X214697368Y-62885912D01*
X215197367Y-62885912D02*
X215197367Y-63885912D01*
X215197367Y-63028769D02*
X215268796Y-62957341D01*
X215268796Y-62957341D02*
X215411653Y-62885912D01*
X215411653Y-62885912D02*
X215625939Y-62885912D01*
X215625939Y-62885912D02*
X215768796Y-62957341D01*
X215768796Y-62957341D02*
X215840225Y-63100198D01*
X215840225Y-63100198D02*
X215840225Y-63885912D01*
X217125939Y-63814484D02*
X216983082Y-63885912D01*
X216983082Y-63885912D02*
X216697368Y-63885912D01*
X216697368Y-63885912D02*
X216554510Y-63814484D01*
X216554510Y-63814484D02*
X216483082Y-63671626D01*
X216483082Y-63671626D02*
X216483082Y-63100198D01*
X216483082Y-63100198D02*
X216554510Y-62957341D01*
X216554510Y-62957341D02*
X216697368Y-62885912D01*
X216697368Y-62885912D02*
X216983082Y-62885912D01*
X216983082Y-62885912D02*
X217125939Y-62957341D01*
X217125939Y-62957341D02*
X217197368Y-63100198D01*
X217197368Y-63100198D02*
X217197368Y-63243055D01*
X217197368Y-63243055D02*
X216483082Y-63385912D01*
X217625939Y-62885912D02*
X218197367Y-62885912D01*
X217840224Y-62385912D02*
X217840224Y-63671626D01*
X217840224Y-63671626D02*
X217911653Y-63814484D01*
X217911653Y-63814484D02*
X218054510Y-63885912D01*
X218054510Y-63885912D02*
X218197367Y-63885912D01*
X220125939Y-62385912D02*
X220411653Y-62385912D01*
X220411653Y-62385912D02*
X220554510Y-62457341D01*
X220554510Y-62457341D02*
X220697367Y-62600198D01*
X220697367Y-62600198D02*
X220768796Y-62885912D01*
X220768796Y-62885912D02*
X220768796Y-63385912D01*
X220768796Y-63385912D02*
X220697367Y-63671626D01*
X220697367Y-63671626D02*
X220554510Y-63814484D01*
X220554510Y-63814484D02*
X220411653Y-63885912D01*
X220411653Y-63885912D02*
X220125939Y-63885912D01*
X220125939Y-63885912D02*
X219983082Y-63814484D01*
X219983082Y-63814484D02*
X219840224Y-63671626D01*
X219840224Y-63671626D02*
X219768796Y-63385912D01*
X219768796Y-63385912D02*
X219768796Y-62885912D01*
X219768796Y-62885912D02*
X219840224Y-62600198D01*
X219840224Y-62600198D02*
X219983082Y-62457341D01*
X219983082Y-62457341D02*
X220125939Y-62385912D01*
X221197368Y-62885912D02*
X221768796Y-62885912D01*
X221411653Y-63885912D02*
X221411653Y-62600198D01*
X221411653Y-62600198D02*
X221483082Y-62457341D01*
X221483082Y-62457341D02*
X221625939Y-62385912D01*
X221625939Y-62385912D02*
X221768796Y-62385912D01*
X209840225Y-64800828D02*
X210697368Y-64800828D01*
X210268796Y-66300828D02*
X210268796Y-64800828D01*
X211197367Y-66300828D02*
X211197367Y-64800828D01*
X211840225Y-66300828D02*
X211840225Y-65515114D01*
X211840225Y-65515114D02*
X211768796Y-65372257D01*
X211768796Y-65372257D02*
X211625939Y-65300828D01*
X211625939Y-65300828D02*
X211411653Y-65300828D01*
X211411653Y-65300828D02*
X211268796Y-65372257D01*
X211268796Y-65372257D02*
X211197367Y-65443685D01*
X212554510Y-66300828D02*
X212554510Y-65300828D01*
X212554510Y-64800828D02*
X212483082Y-64872257D01*
X212483082Y-64872257D02*
X212554510Y-64943685D01*
X212554510Y-64943685D02*
X212625939Y-64872257D01*
X212625939Y-64872257D02*
X212554510Y-64800828D01*
X212554510Y-64800828D02*
X212554510Y-64943685D01*
X213268796Y-65300828D02*
X213268796Y-66300828D01*
X213268796Y-65443685D02*
X213340225Y-65372257D01*
X213340225Y-65372257D02*
X213483082Y-65300828D01*
X213483082Y-65300828D02*
X213697368Y-65300828D01*
X213697368Y-65300828D02*
X213840225Y-65372257D01*
X213840225Y-65372257D02*
X213911654Y-65515114D01*
X213911654Y-65515114D02*
X213911654Y-66300828D01*
X215268797Y-65300828D02*
X215268797Y-66515114D01*
X215268797Y-66515114D02*
X215197368Y-66657971D01*
X215197368Y-66657971D02*
X215125939Y-66729400D01*
X215125939Y-66729400D02*
X214983082Y-66800828D01*
X214983082Y-66800828D02*
X214768797Y-66800828D01*
X214768797Y-66800828D02*
X214625939Y-66729400D01*
X215268797Y-66229400D02*
X215125939Y-66300828D01*
X215125939Y-66300828D02*
X214840225Y-66300828D01*
X214840225Y-66300828D02*
X214697368Y-66229400D01*
X214697368Y-66229400D02*
X214625939Y-66157971D01*
X214625939Y-66157971D02*
X214554511Y-66015114D01*
X214554511Y-66015114D02*
X214554511Y-65586542D01*
X214554511Y-65586542D02*
X214625939Y-65443685D01*
X214625939Y-65443685D02*
X214697368Y-65372257D01*
X214697368Y-65372257D02*
X214840225Y-65300828D01*
X214840225Y-65300828D02*
X215125939Y-65300828D01*
X215125939Y-65300828D02*
X215268797Y-65372257D01*
X215911654Y-66229400D02*
X216054511Y-66300828D01*
X216054511Y-66300828D02*
X216340225Y-66300828D01*
X216340225Y-66300828D02*
X216483082Y-66229400D01*
X216483082Y-66229400D02*
X216554511Y-66086542D01*
X216554511Y-66086542D02*
X216554511Y-66015114D01*
X216554511Y-66015114D02*
X216483082Y-65872257D01*
X216483082Y-65872257D02*
X216340225Y-65800828D01*
X216340225Y-65800828D02*
X216125940Y-65800828D01*
X216125940Y-65800828D02*
X215983082Y-65729400D01*
X215983082Y-65729400D02*
X215911654Y-65586542D01*
X215911654Y-65586542D02*
X215911654Y-65515114D01*
X215911654Y-65515114D02*
X215983082Y-65372257D01*
X215983082Y-65372257D02*
X216125940Y-65300828D01*
X216125940Y-65300828D02*
X216340225Y-65300828D01*
X216340225Y-65300828D02*
X216483082Y-65372257D01*
D14*
%TO.P,220uF1,2*%
%TO.N,Net-(JST-A1-Pin_1)*%
X167000000Y-98100000D03*
%TO.P,220uF1,1*%
%TO.N,GND*%
X167000000Y-90900000D03*
%TD*%
D15*
%TO.P,220uF3,1*%
%TO.N,GND*%
X130500000Y-74500000D03*
%TO.P,220uF3,2*%
%TO.N,Net-(J3-Pin_2)*%
X130500000Y-67300000D03*
%TD*%
D16*
%TO.P,U3,1,VIN_1*%
%TO.N,Net-(J3-Pin_2)*%
X138600000Y-67275000D03*
%TO.P,U3,2,OUT_2*%
%TO.N,Net-(D1-K)*%
X140300000Y-67275000D03*
%TO.P,U3,3,GND_3*%
%TO.N,GND*%
X142000000Y-67275000D03*
D17*
X142000000Y-58125000D03*
D16*
%TO.P,U3,4,FB_4*%
%TO.N,Net-(U3-FB)*%
X143700000Y-67275000D03*
%TO.P,U3,5,~{ON}/OFF_5*%
%TO.N,GND*%
X145400000Y-67275000D03*
%TD*%
D18*
%TO.P,U1,1,SENSE_A_1*%
%TO.N,GND*%
X140080000Y-105620000D03*
D19*
%TO.P,U1,2,OUT1_2*%
%TO.N,Net-(J2-Pin_1)*%
X135000000Y-104350000D03*
%TO.P,U1,3,OUT2_3*%
%TO.N,Net-(J2-Pin_2)*%
X140080000Y-103080000D03*
%TO.P,U1,4,Vs_4*%
%TO.N,Net-(J3-Pin_2)*%
X135000000Y-101810000D03*
%TO.P,U1,5,IN1_5*%
%TO.N,Net-(U1-IN1)*%
X140080000Y-100540000D03*
%TO.P,U1,6,EnA_6*%
%TO.N,Net-(U1-EnA)*%
X135000000Y-99270000D03*
%TO.P,U1,7,IN2_7*%
%TO.N,Net-(U1-IN2)*%
X140080000Y-98000000D03*
%TO.P,U1,8,GND_8*%
%TO.N,GND*%
X135000000Y-96730000D03*
%TO.P,U1,9,Vss_9*%
%TO.N,Net-(JST-A1-Pin_1)*%
X140080000Y-95460000D03*
%TO.P,U1,10,IN3_10*%
%TO.N,Net-(U1-IN3)*%
X135000000Y-94190000D03*
%TO.P,U1,11,EnB_11*%
%TO.N,Net-(U1-EnB)*%
X140080000Y-92920000D03*
%TO.P,U1,12,IN4_12*%
%TO.N,Net-(U1-IN4)*%
X135000000Y-91650000D03*
%TO.P,U1,13,OUT3_13*%
%TO.N,Net-(J1-Pin_1)*%
X140080000Y-90380000D03*
%TO.P,U1,14,OUT4_14*%
%TO.N,Net-(J1-Pin_2)*%
X135000000Y-89110000D03*
%TO.P,U1,15,SENSE_B_15*%
%TO.N,GND*%
X140080000Y-87840000D03*
%TD*%
D20*
%TO.P,L1,1,1_1*%
%TO.N,Net-(JST-A1-Pin_1)*%
X155500000Y-63550000D03*
%TO.P,L1,2,2_2*%
%TO.N,Net-(D1-K)*%
X155500000Y-73450000D03*
%TD*%
D14*
%TO.P,220uF4,1*%
%TO.N,Net-(JST-A1-Pin_1)*%
X168500000Y-59400000D03*
%TO.P,220uF4,2*%
%TO.N,GND*%
X168500000Y-66600000D03*
%TD*%
D21*
%TO.P,D1,2,A_2*%
%TO.N,GND*%
X142000000Y-74500000D03*
%TO.P,D1,1,K_1*%
%TO.N,Net-(D1-K)*%
X146000000Y-74500000D03*
%TD*%
D22*
%TO.P,D12,A*%
%TO.N,GND*%
X159500000Y-83000000D03*
%TO.P,D12,C*%
%TO.N,Net-(J1-Pin_2)*%
X163500000Y-83000000D03*
%TD*%
D23*
%TO.P,JST-A1,1,Pin_1_1*%
%TO.N,Net-(JST-A1-Pin_1)*%
X228500000Y-94500000D03*
D24*
%TO.P,JST-A1,2,Pin_2_2*%
%TO.N,GND*%
X228500000Y-92000000D03*
%TO.P,JST-A1,3,Pin_3_3*%
%TO.N,Net-(JST-A1-Pin_3)*%
X228500000Y-89500000D03*
%TO.P,JST-A1,4,Pin_4_4*%
%TO.N,Net-(JST-A1-Pin_4)*%
X228500000Y-87000000D03*
%TO.P,JST-A1,5,Pin_5_5*%
%TO.N,Net-(JST-A1-Pin_5)*%
X228500000Y-84500000D03*
%TO.P,JST-A1,6,Pin_6_6*%
%TO.N,Net-(JST-A1-Pin_6)*%
X228500000Y-82000000D03*
%TO.P,JST-A1,7,Pin_7_7*%
%TO.N,Net-(JST-A1-Pin_7)*%
X228500000Y-79500000D03*
%TO.P,JST-A1,8,Pin_8_8*%
%TO.N,Net-(JST-A1-Pin_8)*%
X228500000Y-77000000D03*
%TO.P,JST-A1,9,Pin_9_9*%
%TO.N,unconnected-(JST-A1-Pin_9-Pad9)*%
X228500000Y-74500000D03*
%TO.P,JST-A1,10,Pin_10_10*%
%TO.N,unconnected-(JST-A1-Pin_10-Pad10)*%
X228500000Y-72000000D03*
%TD*%
D25*
%TO.P,J1,2,Pin_2_2*%
%TO.N,Net-(J1-Pin_2)*%
X169250000Y-109737500D03*
D26*
%TO.P,J1,1,Pin_1_1*%
%TO.N,Net-(J1-Pin_1)*%
X164250000Y-109737500D03*
%TD*%
D27*
%TO.P,D9,A*%
%TO.N,Net-(J1-Pin_1)*%
X147500000Y-92000000D03*
%TO.P,D9,C*%
%TO.N,Net-(J3-Pin_2)*%
X147500000Y-88000000D03*
%TD*%
%TO.P,D5,A*%
%TO.N,Net-(J2-Pin_1)*%
X127000000Y-102000000D03*
%TO.P,D5,C*%
%TO.N,Net-(J3-Pin_2)*%
X127000000Y-98000000D03*
%TD*%
%TO.P,D10,A*%
%TO.N,GND*%
X153000000Y-91500000D03*
%TO.P,D10,C*%
%TO.N,Net-(J1-Pin_1)*%
X153000000Y-87500000D03*
%TD*%
D28*
%TO.P,220uF2,1*%
%TO.N,Net-(J3-Pin_2)*%
X127600000Y-83500000D03*
%TO.P,220uF2,2*%
%TO.N,GND*%
X120400000Y-83500000D03*
%TD*%
D27*
%TO.P,D8,A*%
%TO.N,GND*%
X153500000Y-101000000D03*
%TO.P,D8,C*%
%TO.N,Net-(J2-Pin_2)*%
X153500000Y-97000000D03*
%TD*%
D29*
%TO.P,R2,1*%
%TO.N,Net-(U4-D34)*%
X193310000Y-56500000D03*
%TO.P,R2,2*%
%TO.N,Net-(J3-Pin_2)*%
X185690000Y-56500000D03*
%TD*%
%TO.P,R1,1*%
%TO.N,GND*%
X205620000Y-56500000D03*
%TO.P,R1,2*%
%TO.N,Net-(U4-D34)*%
X198000000Y-56500000D03*
%TD*%
D22*
%TO.P,D11,A*%
%TO.N,Net-(J1-Pin_2)*%
X152000000Y-83000000D03*
%TO.P,D11,C*%
%TO.N,Net-(J3-Pin_2)*%
X156000000Y-83000000D03*
%TD*%
D26*
%TO.P,J2,1,Pin_1_1*%
%TO.N,Net-(J2-Pin_1)*%
X149750000Y-109467500D03*
D25*
%TO.P,J2,2,Pin_2_2*%
%TO.N,Net-(J2-Pin_2)*%
X154750000Y-109467500D03*
%TD*%
D30*
%TO.P,J3,1,Pin_1_1*%
%TO.N,GND*%
X118700000Y-72750000D03*
D31*
%TO.P,J3,2,Pin_2_2*%
%TO.N,Net-(J3-Pin_2)*%
X118700000Y-70250000D03*
%TD*%
D27*
%TO.P,D7,A*%
%TO.N,Net-(J2-Pin_2)*%
X148000000Y-101500000D03*
%TO.P,D7,C*%
%TO.N,Net-(J3-Pin_2)*%
X148000000Y-97500000D03*
%TD*%
%TO.P,D6,A*%
%TO.N,GND*%
X123000000Y-96500000D03*
%TO.P,D6,C*%
%TO.N,Net-(J2-Pin_1)*%
X123000000Y-92500000D03*
%TD*%
D32*
%TO.P,RV1,3,3_3*%
%TO.N,GND*%
X153460000Y-56495000D03*
%TO.P,RV1,2,2_2*%
%TO.N,Net-(U3-FB)*%
X156000000Y-56495000D03*
%TO.P,RV1,1,1_1*%
%TO.N,Net-(JST-A1-Pin_1)*%
X158540000Y-56495000D03*
%TD*%
D24*
%TO.P,JST-B1,10,Pin_10_10*%
%TO.N,unconnected-(JST-B1-Pin_10-Pad10)*%
X216200000Y-72250000D03*
%TO.P,JST-B1,9,Pin_9_9*%
%TO.N,unconnected-(JST-B1-Pin_9-Pad9)*%
X216200000Y-74750000D03*
%TO.P,JST-B1,8,Pin_8_8*%
%TO.N,unconnected-(JST-B1-Pin_8-Pad8)*%
X216200000Y-77250000D03*
%TO.P,JST-B1,7,Pin_7_7*%
%TO.N,unconnected-(JST-B1-Pin_7-Pad7)*%
X216200000Y-79750000D03*
%TO.P,JST-B1,6,Pin_6_6*%
%TO.N,unconnected-(JST-B1-Pin_6-Pad6)*%
X216200000Y-82250000D03*
%TO.P,JST-B1,5,Pin_5_5*%
%TO.N,Net-(JST-B1-Pin_5)*%
X216200000Y-84750000D03*
%TO.P,JST-B1,4,Pin_4_4*%
%TO.N,Net-(JST-B1-Pin_4)*%
X216200000Y-87250000D03*
%TO.P,JST-B1,3,Pin_3_3*%
%TO.N,Net-(JST-B1-Pin_3)*%
X216200000Y-89750000D03*
%TO.P,JST-B1,2,Pin_2_2*%
%TO.N,GND*%
X216200000Y-92250000D03*
D23*
%TO.P,JST-B1,1,Pin_1_1*%
%TO.N,Net-(JST-B1-Pin_1)*%
X216200000Y-94750000D03*
%TD*%
D33*
%TO.P,H1,1*%
%TO.N,N/C*%
X122500000Y-109500000D03*
%TD*%
%TO.P,H3,3*%
%TO.N,N/C*%
X224500000Y-57500000D03*
%TD*%
%TO.P,H2,2*%
%TO.N,N/C*%
X224500000Y-109000000D03*
%TD*%
D34*
%TO.P,U4,1,3V3_1*%
%TO.N,Net-(JST-B1-Pin_1)*%
X205200000Y-105515000D03*
D35*
%TO.P,U4,2,GND_2*%
%TO.N,GND*%
X205200000Y-102975000D03*
%TO.P,U4,3,D15_3*%
%TO.N,Net-(JST-B1-Pin_5)*%
X205200000Y-100435000D03*
%TO.P,U4,4,D2_4*%
%TO.N,Net-(JST-A1-Pin_8)*%
X205200000Y-97895000D03*
%TO.P,U4,5,D4_5*%
%TO.N,unconnected-(U4-D4-Pad5)*%
X205200000Y-95355000D03*
%TO.P,U4,6,RX2_6*%
%TO.N,unconnected-(U4-RX2-Pad6)*%
X205200000Y-92815000D03*
%TO.P,U4,7,TX2_7*%
%TO.N,unconnected-(U4-TX2-Pad7)*%
X205200000Y-90275000D03*
%TO.P,U4,8,D5_8*%
%TO.N,unconnected-(U4-D5-Pad8)*%
X205200000Y-87735000D03*
%TO.P,U4,9,D18_9*%
%TO.N,Net-(JST-A1-Pin_7)*%
X205200000Y-85195000D03*
%TO.P,U4,10,D19_10*%
%TO.N,Net-(JST-A1-Pin_6)*%
X205200000Y-82655000D03*
%TO.P,U4,11,D21_11*%
%TO.N,Net-(U1-EnA)*%
X205200000Y-80115000D03*
%TO.P,U4,12,RX0_12*%
%TO.N,unconnected-(U4-RX0-Pad12)*%
X205200000Y-77575000D03*
%TO.P,U4,13,TX0_13*%
%TO.N,unconnected-(U4-TX0-Pad13)*%
X205200000Y-75035000D03*
%TO.P,U4,14,D22_14*%
%TO.N,Net-(JST-A1-Pin_3)*%
X205200000Y-72495000D03*
%TO.P,U4,15,D23_15*%
%TO.N,Net-(JST-A1-Pin_5)*%
X205200000Y-69955000D03*
%TO.P,U4,16,EN_16*%
%TO.N,unconnected-(U4-EN-Pad16)*%
X179800000Y-69955000D03*
%TO.P,U4,17,VP_17*%
%TO.N,unconnected-(U4-VP-Pad17)*%
X179800000Y-72495000D03*
%TO.P,U4,18,VN_18*%
%TO.N,unconnected-(U4-VN-Pad18)*%
X179800000Y-75035000D03*
%TO.P,U4,19,D34_19*%
%TO.N,Net-(U4-D34)*%
X179800000Y-77575000D03*
%TO.P,U4,20,D35_20*%
%TO.N,Net-(JST-A1-Pin_4)*%
X179800000Y-80115000D03*
%TO.P,U4,21,D32_21*%
%TO.N,Net-(JST-B1-Pin_3)*%
X179800000Y-82655000D03*
%TO.P,U4,22,D33_22*%
%TO.N,Net-(JST-B1-Pin_4)*%
X179800000Y-85195000D03*
%TO.P,U4,23,D25_23*%
%TO.N,Net-(U1-EnB)*%
X179800000Y-87735000D03*
%TO.P,U4,24,D26_24*%
%TO.N,Net-(U1-IN4)*%
X179800000Y-90275000D03*
%TO.P,U4,25,D27_25*%
%TO.N,Net-(U1-IN3)*%
X179800000Y-92815000D03*
%TO.P,U4,26,D14_26*%
%TO.N,Net-(U1-IN2)*%
X179800000Y-95355000D03*
%TO.P,U4,27,D12_27*%
%TO.N,unconnected-(U4-D12-Pad27)*%
X179800000Y-97895000D03*
%TO.P,U4,28,D13_28*%
%TO.N,Net-(U1-IN1)*%
X179800000Y-100435000D03*
%TO.P,U4,29,GND_29*%
%TO.N,GND*%
X179800000Y-102975000D03*
%TO.P,U4,30,VIN_30*%
%TO.N,Net-(JST-A1-Pin_1)*%
X179800000Y-105515000D03*
%TD*%
D33*
%TO.P,H4,1*%
%TO.N,N/C*%
X122000000Y-58000000D03*
%TD*%
D36*
%TO.N,Net-(U1-IN3)*%
X134000000Y-79000000D03*
X175976100Y-78199600D03*
%TO.N,Net-(U1-EnA)*%
X205293700Y-109213800D03*
X141706500Y-112333200D03*
%TO.N,Net-(U1-IN4)*%
X138954100Y-80715500D03*
X177143600Y-77732700D03*
%TO.N,Net-(U3-FB)*%
X157603300Y-70043700D03*
%TO.N,Net-(JST-B1-Pin_4)*%
X202380200Y-84348500D03*
%TO.N,Net-(JST-B1-Pin_3)*%
X201319500Y-85421700D03*
%TO.N,Net-(JST-A1-Pin_3)*%
X209203900Y-89134100D03*
%TO.N,Net-(JST-A1-Pin_7)*%
X226330800Y-84242400D03*
%TO.N,Net-(JST-A1-Pin_8)*%
X224715300Y-96505900D03*
%TO.N,Net-(JST-A1-Pin_4)*%
X201317900Y-77732700D03*
%TO.N,Net-(J1-Pin_2)*%
X169525900Y-81577200D03*
%TO.N,Net-(J1-Pin_1)*%
X157370500Y-85609600D03*
%TO.N,Net-(J2-Pin_2)*%
X157603300Y-96767600D03*
%TO.N,Net-(J3-Pin_2)*%
X149942700Y-88009300D03*
X150246300Y-97166700D03*
X150046700Y-82176000D03*
%TO.N,GND*%
X125000000Y-96433600D03*
X153891000Y-89500000D03*
X117011600Y-84025200D03*
X153629100Y-77732700D03*
X141706500Y-77732700D03*
%TO.N,Net-(JST-A1-Pin_1)*%
X177143600Y-96955200D03*
%TD*%
%TO.N,Net-(JST-A1-Pin_8)*%
D37*
X223326200Y-97895000D02*
X224715300Y-96505900D01*
X205200000Y-97895000D02*
X223326200Y-97895000D01*
%TO.N,Net-(U1-IN3)*%
X175194300Y-78981400D02*
X175976100Y-78199600D01*
X134018600Y-78981400D02*
X175194300Y-78981400D01*
X134000000Y-79000000D02*
X134018600Y-78981400D01*
%TO.N,Net-(U1-IN1)*%
X140924600Y-99695400D02*
X140080000Y-100540000D01*
X151824300Y-99695400D02*
X140924600Y-99695400D01*
X152199500Y-99320200D02*
X151824300Y-99695400D01*
X155217300Y-99320200D02*
X152199500Y-99320200D01*
X157631500Y-101734400D02*
X155217300Y-99320200D01*
X177613400Y-101734400D02*
X157631500Y-101734400D01*
X178912800Y-100435000D02*
X177613400Y-101734400D01*
X179800000Y-100435000D02*
X178912800Y-100435000D01*
%TO.N,Net-(U1-EnB)*%
X140974800Y-93814800D02*
X140080000Y-92920000D01*
X164447500Y-93814800D02*
X140974800Y-93814800D01*
X164612500Y-93979800D02*
X164447500Y-93814800D01*
X173555200Y-93979800D02*
X164612500Y-93979800D01*
X179800000Y-87735000D02*
X173555200Y-93979800D01*
%TO.N,Net-(U1-EnA)*%
X172151800Y-112333200D02*
X141706500Y-112333200D01*
X175271200Y-109213800D02*
X172151800Y-112333200D01*
X205293700Y-109213800D02*
X175271200Y-109213800D01*
%TO.N,Net-(U1-IN2)*%
X141273700Y-99193700D02*
X140080000Y-98000000D01*
X151366200Y-99193700D02*
X141273700Y-99193700D01*
X151741400Y-98818500D02*
X151366200Y-99193700D01*
X155675100Y-98818500D02*
X151741400Y-98818500D01*
X158089300Y-101232700D02*
X155675100Y-98818500D01*
X174602300Y-101232700D02*
X158089300Y-101232700D01*
X178423300Y-97411700D02*
X174602300Y-101232700D01*
X178423300Y-96731700D02*
X178423300Y-97411700D01*
X179800000Y-95355000D02*
X178423300Y-96731700D01*
%TO.N,Net-(U1-IN4)*%
X177143600Y-78130600D02*
X177143600Y-77732700D01*
X175577400Y-79696800D02*
X177143600Y-78130600D01*
X139972800Y-79696800D02*
X175577400Y-79696800D01*
X138954100Y-80715500D02*
X139972800Y-79696800D01*
%TO.N,Net-(U3-FB)*%
X143700000Y-69468300D02*
X143700000Y-67275000D01*
X144667000Y-70435300D02*
X143700000Y-69468300D01*
X157211700Y-70435300D02*
X144667000Y-70435300D01*
X157603300Y-70043700D02*
X157211700Y-70435300D01*
%TO.N,Net-(U4-D34)*%
X198000000Y-56500000D02*
X193310000Y-56500000D01*
%TO.N,Net-(JST-B1-Pin_4)*%
X180646500Y-84348500D02*
X202380200Y-84348500D01*
X179800000Y-85195000D02*
X180646500Y-84348500D01*
%TO.N,Net-(JST-B1-Pin_3)*%
X201785200Y-82655000D02*
X179800000Y-82655000D01*
X203156900Y-84026700D02*
X201785200Y-82655000D01*
X203156900Y-84670300D02*
X203156900Y-84026700D01*
X202405500Y-85421700D02*
X203156900Y-84670300D01*
X201319500Y-85421700D02*
X202405500Y-85421700D01*
%TO.N,Net-(JST-A1-Pin_6)*%
X206045000Y-83500000D02*
X205200000Y-82655000D01*
X225648300Y-83500000D02*
X206045000Y-83500000D01*
X227148300Y-82000000D02*
X225648300Y-83500000D01*
X228500000Y-82000000D02*
X227148300Y-82000000D01*
%TO.N,Net-(JST-A1-Pin_3)*%
X227866900Y-88273300D02*
X228500000Y-88273300D01*
X227640100Y-88500100D02*
X227866900Y-88273300D01*
X209837900Y-88500100D02*
X227640100Y-88500100D01*
X209203900Y-89134100D02*
X209837900Y-88500100D01*
X228500000Y-89500000D02*
X228500000Y-88273300D01*
%TO.N,Net-(JST-A1-Pin_7)*%
X206028300Y-86023300D02*
X205200000Y-85195000D01*
X224549900Y-86023300D02*
X206028300Y-86023300D01*
X226330800Y-84242400D02*
X224549900Y-86023300D01*
%TO.N,Net-(JST-A1-Pin_5)*%
X229133300Y-83273300D02*
X228500000Y-83273300D01*
X229855100Y-82551500D02*
X229133300Y-83273300D01*
X229855100Y-76463100D02*
X229855100Y-82551500D01*
X229142000Y-75750000D02*
X229855100Y-76463100D01*
X225647300Y-75750000D02*
X229142000Y-75750000D01*
X219852300Y-69955000D02*
X225647300Y-75750000D01*
X205200000Y-69955000D02*
X219852300Y-69955000D01*
X228500000Y-84500000D02*
X228500000Y-83273300D01*
%TO.N,Net-(JST-A1-Pin_4)*%
X182182300Y-77732700D02*
X179800000Y-80115000D01*
X201317900Y-77732700D02*
X182182300Y-77732700D01*
%TO.N,Net-(J1-Pin_2)*%
D38*
X164922800Y-81577200D02*
X163500000Y-83000000D01*
X169525900Y-81577200D02*
X164922800Y-81577200D01*
X151322300Y-83677700D02*
X152000000Y-83000000D01*
X140432300Y-83677700D02*
X151322300Y-83677700D01*
X135000000Y-89110000D02*
X140432300Y-83677700D01*
X161519500Y-81019500D02*
X163500000Y-83000000D01*
X153980500Y-81019500D02*
X161519500Y-81019500D01*
X152000000Y-83000000D02*
X153980500Y-81019500D01*
%TO.N,Net-(J1-Pin_1)*%
X145880000Y-90380000D02*
X140080000Y-90380000D01*
X147500000Y-92000000D02*
X145880000Y-90380000D01*
X155480100Y-87500000D02*
X157370500Y-85609600D01*
X153000000Y-87500000D02*
X155480100Y-87500000D01*
X148500000Y-92000000D02*
X153000000Y-87500000D01*
X147500000Y-92000000D02*
X148500000Y-92000000D01*
%TO.N,Net-(J2-Pin_2)*%
X146420000Y-103080000D02*
X140080000Y-103080000D01*
X148000000Y-101500000D02*
X146420000Y-103080000D01*
X157370900Y-97000000D02*
X153500000Y-97000000D01*
X157603300Y-96767600D02*
X157370900Y-97000000D01*
%TO.N,Net-(J2-Pin_1)*%
X129350000Y-104350000D02*
X127000000Y-102000000D01*
X135000000Y-104350000D02*
X129350000Y-104350000D01*
X121047800Y-94452200D02*
X123000000Y-92500000D01*
X121047800Y-97686200D02*
X121047800Y-94452200D01*
X125361600Y-102000000D02*
X121047800Y-97686200D01*
X127000000Y-102000000D02*
X125361600Y-102000000D01*
X140117500Y-109467500D02*
X135000000Y-104350000D01*
X149750000Y-109467500D02*
X140117500Y-109467500D01*
%TO.N,Net-(D1-K)*%
D37*
X146000000Y-73450000D02*
X146000000Y-74500000D01*
X155500000Y-73450000D02*
X146000000Y-73450000D01*
X140300000Y-69536100D02*
X140300000Y-67275000D01*
X144213900Y-73450000D02*
X140300000Y-69536100D01*
X146000000Y-73450000D02*
X144213900Y-73450000D01*
%TO.N,Net-(J3-Pin_2)*%
D38*
X130810000Y-101810000D02*
X127000000Y-98000000D01*
X135000000Y-101810000D02*
X130810000Y-101810000D01*
X129501700Y-68298300D02*
X130500000Y-67300000D01*
X118700000Y-68298300D02*
X129501700Y-68298300D01*
X118700000Y-70250000D02*
X118700000Y-68298300D01*
X135481800Y-53127600D02*
X135481800Y-67275000D01*
X136336800Y-52272600D02*
X135481800Y-53127600D01*
X181462600Y-52272600D02*
X136336800Y-52272600D01*
X185690000Y-56500000D02*
X181462600Y-52272600D01*
X130525000Y-67275000D02*
X135481800Y-67275000D01*
X130500000Y-67300000D02*
X130525000Y-67275000D01*
X135481800Y-67275000D02*
X138600000Y-67275000D01*
X127300000Y-97700000D02*
X127000000Y-98000000D01*
X127300000Y-83500000D02*
X127300000Y-97700000D01*
X118700000Y-70250000D02*
X120801700Y-70250000D01*
X127600000Y-83500000D02*
X127300000Y-83500000D01*
X149919400Y-85580600D02*
X147500000Y-88000000D01*
X153419400Y-85580600D02*
X149919400Y-85580600D01*
X156000000Y-83000000D02*
X153419400Y-85580600D01*
X147509300Y-88009300D02*
X149942700Y-88009300D01*
X147500000Y-88000000D02*
X147509300Y-88009300D01*
X148333300Y-97166700D02*
X148000000Y-97500000D01*
X150246300Y-97166700D02*
X148333300Y-97166700D01*
X127300000Y-76748300D02*
X120801700Y-70250000D01*
X127300000Y-82217200D02*
X127300000Y-76748300D01*
X127300000Y-83500000D02*
X127300000Y-82217200D01*
X139617400Y-82176000D02*
X150046700Y-82176000D01*
X139576200Y-82217200D02*
X139617400Y-82176000D01*
X127300000Y-82217200D02*
X139576200Y-82217200D01*
%TO.N,GND*%
X218526700Y-92000000D02*
X218276700Y-92250000D01*
X228500000Y-92000000D02*
X218526700Y-92000000D01*
X216200000Y-92250000D02*
X218276700Y-92250000D01*
X135316300Y-96730000D02*
X135000000Y-96730000D01*
X138070500Y-93975800D02*
X135316300Y-96730000D01*
X138070500Y-89496400D02*
X138070500Y-93975800D01*
X139726900Y-87840000D02*
X138070500Y-89496400D01*
X140080000Y-87840000D02*
X139726900Y-87840000D01*
X159500000Y-88104000D02*
X159500000Y-83000000D01*
X164204000Y-88104000D02*
X159500000Y-88104000D01*
X167000000Y-90900000D02*
X164204000Y-88104000D01*
X205200000Y-102975000D02*
X179800000Y-102975000D01*
X172348800Y-62751200D02*
X168500000Y-66600000D01*
X199368800Y-62751200D02*
X172348800Y-62751200D01*
X205620000Y-56500000D02*
X199368800Y-62751200D01*
X168500000Y-66600000D02*
X145400000Y-66600000D01*
X145400000Y-67275000D02*
X145400000Y-66600000D01*
X142234200Y-58359200D02*
X142234200Y-62616900D01*
X142000000Y-58125000D02*
X142234200Y-58359200D01*
X143353000Y-62616900D02*
X142234200Y-62616900D01*
X145400000Y-64663900D02*
X143353000Y-62616900D01*
X145400000Y-66600000D02*
X145400000Y-64663900D01*
X142000000Y-62851100D02*
X142000000Y-67275000D01*
X142234200Y-62616900D02*
X142000000Y-62851100D01*
X143630000Y-56495000D02*
X142000000Y-58125000D01*
X153460000Y-56495000D02*
X143630000Y-56495000D01*
X150855000Y-105620000D02*
X140080000Y-105620000D01*
X153500000Y-102975000D02*
X150855000Y-105620000D01*
X153500000Y-101000000D02*
X153500000Y-102975000D01*
X179800000Y-102975000D02*
X153500000Y-102975000D01*
X124933600Y-96500000D02*
X125000000Y-96433600D01*
X123000000Y-96500000D02*
X124933600Y-96500000D01*
X158104000Y-89500000D02*
X153891000Y-89500000D01*
X159500000Y-88104000D02*
X158104000Y-89500000D01*
X153891000Y-90609000D02*
X153891000Y-89500000D01*
X153000000Y-91500000D02*
X153891000Y-90609000D01*
X119874800Y-84025200D02*
X120400000Y-83500000D01*
X117011600Y-84025200D02*
X119874800Y-84025200D01*
X142000000Y-74500000D02*
X130500000Y-74500000D01*
X141706500Y-77732700D02*
X143469600Y-75969600D01*
X145232700Y-77732700D02*
X143469600Y-75969600D01*
X153629100Y-77732700D02*
X145232700Y-77732700D01*
X143469600Y-75969600D02*
X142000000Y-74500000D01*
%TO.N,Net-(JST-A1-Pin_1)*%
X155500000Y-63550000D02*
X155500000Y-60998300D01*
X158540000Y-59400000D02*
X158540000Y-56495000D01*
X168500000Y-59400000D02*
X158540000Y-59400000D01*
X157098300Y-59400000D02*
X155500000Y-60998300D01*
X158540000Y-59400000D02*
X157098300Y-59400000D01*
X168144800Y-96955200D02*
X167000000Y-98100000D01*
X177143600Y-96955200D02*
X168144800Y-96955200D01*
X166997800Y-98100000D02*
X167000000Y-98100000D01*
X163953800Y-95056000D02*
X166997800Y-98100000D01*
X140080000Y-95460000D02*
X140484000Y-95056000D01*
X228500000Y-94845000D02*
X228500000Y-94500000D01*
X215728300Y-107616700D02*
X228500000Y-94845000D01*
X181901700Y-107616700D02*
X215728300Y-107616700D01*
X179800000Y-105515000D02*
X181901700Y-107616700D01*
X140484000Y-95056000D02*
X163953800Y-95056000D01*
%TD*%
M02*
