%TF.GenerationSoftware,KiCad,Pcbnew,10.0.1*%
%TF.CreationDate,2026-04-27T19:32:30+02:00*%
%TF.ProjectId,iot,696f742e-6b69-4636-9164-5f7063625858,rev?*%
%TF.SameCoordinates,Original*%
%TF.FileFunction,Soldermask,Bot*%
%TF.FilePolarity,Negative*%
%FSLAX46Y46*%
G04 Gerber Fmt 4.6, Leading zero omitted, Abs format (unit mm)*
G04 Created by KiCad (PCBNEW 10.0.1) date 2026-04-27 19:32:30*
%MOMM*%
%LPD*%
G01*
G04 APERTURE LIST*
G04 Aperture macros list*
%AMRoundRect*
0 Rectangle with rounded corners*
0 $1 Rounding radius*
0 $2 $3 $4 $5 $6 $7 $8 $9 X,Y pos of 4 corners*
0 Add a 4 corners polygon primitive as box body*
4,1,4,$2,$3,$4,$5,$6,$7,$8,$9,$2,$3,0*
0 Add four circle primitives for the rounded corners*
1,1,$1+$1,$2,$3*
1,1,$1+$1,$4,$5*
1,1,$1+$1,$6,$7*
1,1,$1+$1,$8,$9*
0 Add four rect primitives between the rounded corners*
20,1,$1+$1,$2,$3,$4,$5,0*
20,1,$1+$1,$4,$5,$6,$7,0*
20,1,$1+$1,$6,$7,$8,$9,0*
20,1,$1+$1,$8,$9,$2,$3,0*%
G04 Aperture macros list end*
%ADD10R,1.800000X1.800000*%
%ADD11C,1.800000*%
%ADD12RoundRect,0.250000X0.725000X-0.600000X0.725000X0.600000X-0.725000X0.600000X-0.725000X-0.600000X0*%
%ADD13O,1.950000X1.700000*%
%ADD14C,2.800000*%
%ADD15RoundRect,0.250001X-1.149999X-1.149999X1.149999X-1.149999X1.149999X1.149999X-1.149999X1.149999X0*%
%ADD16C,1.600000*%
%ADD17RoundRect,0.250000X0.750000X-0.600000X0.750000X0.600000X-0.750000X0.600000X-0.750000X-0.600000X0*%
%ADD18O,2.000000X1.700000*%
%ADD19C,1.440000*%
%ADD20O,10.400000X8.600000*%
%ADD21C,3.000000*%
%ADD22RoundRect,0.102000X1.000000X1.000000X-1.000000X1.000000X-1.000000X-1.000000X1.000000X-1.000000X0*%
%ADD23C,2.204000*%
G04 APERTURE END LIST*
D10*
%TO.C,U1*%
X140080000Y-105620000D03*
D11*
X135000000Y-104350000D03*
X140080000Y-103080000D03*
X135000000Y-101810000D03*
X140080000Y-100540000D03*
X135000000Y-99270000D03*
X140080000Y-98000000D03*
X135000000Y-96730000D03*
X140080000Y-95460000D03*
X135000000Y-94190000D03*
X140080000Y-92920000D03*
X135000000Y-91650000D03*
X140080000Y-90380000D03*
X135000000Y-89110000D03*
X140080000Y-87840000D03*
%TD*%
D12*
%TO.C,JST-A1*%
X228500000Y-94500000D03*
D13*
X228500000Y-92000000D03*
X228500000Y-89500000D03*
X228500000Y-87000000D03*
X228500000Y-84500000D03*
X228500000Y-82000000D03*
X228500000Y-79500000D03*
X228500000Y-77000000D03*
X228500000Y-74500000D03*
X228500000Y-72000000D03*
%TD*%
D14*
%TO.C,J1*%
X169250000Y-109737500D03*
D15*
X164250000Y-109737500D03*
%TD*%
D16*
%TO.C,R2*%
X193310000Y-56500000D03*
X185690000Y-56500000D03*
%TD*%
%TO.C,R1*%
X205620000Y-56500000D03*
X198000000Y-56500000D03*
%TD*%
D15*
%TO.C,J2*%
X149750000Y-109467500D03*
D14*
X154750000Y-109467500D03*
%TD*%
D17*
%TO.C,J3*%
X118700000Y-72750000D03*
D18*
X118700000Y-70250000D03*
%TD*%
D19*
%TO.C,RV1*%
X153460000Y-56495000D03*
X156000000Y-56495000D03*
X158540000Y-56495000D03*
%TD*%
D13*
%TO.C,JST-B1*%
X216200000Y-72250000D03*
X216200000Y-74750000D03*
X216200000Y-77250000D03*
X216200000Y-79750000D03*
X216200000Y-82250000D03*
X216200000Y-84750000D03*
X216200000Y-87250000D03*
X216200000Y-89750000D03*
X216200000Y-92250000D03*
D12*
X216200000Y-94750000D03*
%TD*%
D20*
%TO.C,H1*%
X122500000Y-109500000D03*
%TD*%
%TO.C,H3*%
X224500000Y-57500000D03*
%TD*%
%TO.C,H2*%
X224500000Y-109000000D03*
%TD*%
D21*
%TO.C,U4*%
X204780000Y-113475000D03*
X204780000Y-66525000D03*
X180270000Y-113475000D03*
X180270000Y-66525000D03*
D22*
X205200000Y-105515000D03*
D23*
X205200000Y-102975000D03*
X205200000Y-100435000D03*
X205200000Y-97895000D03*
X205200000Y-95355000D03*
X205200000Y-92815000D03*
X205200000Y-90275000D03*
X205200000Y-87735000D03*
X205200000Y-85195000D03*
X205200000Y-82655000D03*
X205200000Y-80115000D03*
X205200000Y-77575000D03*
X205200000Y-75035000D03*
X205200000Y-72495000D03*
X205200000Y-69955000D03*
X179800000Y-69955000D03*
X179800000Y-72495000D03*
X179800000Y-75035000D03*
X179800000Y-77575000D03*
X179800000Y-80115000D03*
X179800000Y-82655000D03*
X179800000Y-85195000D03*
X179800000Y-87735000D03*
X179800000Y-90275000D03*
X179800000Y-92815000D03*
X179800000Y-95355000D03*
X179800000Y-97895000D03*
X179800000Y-100435000D03*
X179800000Y-102975000D03*
X179800000Y-105515000D03*
%TD*%
D20*
%TO.C,H4*%
X122000000Y-58000000D03*
%TD*%
M02*
