%TF.GenerationSoftware,KiCad,Pcbnew,10.0.1*%
%TF.CreationDate,2026-04-27T19:32:29+02:00*%
%TF.ProjectId,iot,696f742e-6b69-4636-9164-5f7063625858,rev?*%
%TF.SameCoordinates,Original*%
%TF.FileFunction,Copper,L2,Bot*%
%TF.FilePolarity,Positive*%
%FSLAX46Y46*%
G04 Gerber Fmt 4.6, Leading zero omitted, Abs format (unit mm)*
G04 Created by KiCad (PCBNEW 10.0.1) date 2026-04-27 19:32:29*
%MOMM*%
%LPD*%
G01*
G04 APERTURE LIST*
G04 Aperture macros list*
%AMRoundRect*
0 Rectangle with rounded corners*
0 $1 Rounding radius*
0 $2 $3 $4 $5 $6 $7 $8 $9 X,Y pos of 4 corners*
0 Add a 4 corners polygon primitive as box body*
4,1,4,$2,$3,$4,$5,$6,$7,$8,$9,$2,$3,0*
0 Add four circle primitives for the rounded corners*
1,1,$1+$1,$2,$3*
1,1,$1+$1,$4,$5*
1,1,$1+$1,$6,$7*
1,1,$1+$1,$8,$9*
0 Add four rect primitives between the rounded corners*
20,1,$1+$1,$2,$3,$4,$5,0*
20,1,$1+$1,$4,$5,$6,$7,0*
20,1,$1+$1,$6,$7,$8,$9,0*
20,1,$1+$1,$8,$9,$2,$3,0*%
G04 Aperture macros list end*
%TA.AperFunction,ComponentPad*%
%ADD10R,1.800000X1.800000*%
%TD*%
%TA.AperFunction,ComponentPad*%
%ADD11C,1.800000*%
%TD*%
%TA.AperFunction,ComponentPad*%
%ADD12RoundRect,0.250000X0.725000X-0.600000X0.725000X0.600000X-0.725000X0.600000X-0.725000X-0.600000X0*%
%TD*%
%TA.AperFunction,ComponentPad*%
%ADD13O,1.950000X1.700000*%
%TD*%
%TA.AperFunction,ComponentPad*%
%ADD14C,2.800000*%
%TD*%
%TA.AperFunction,ComponentPad*%
%ADD15RoundRect,0.250001X-1.149999X-1.149999X1.149999X-1.149999X1.149999X1.149999X-1.149999X1.149999X0*%
%TD*%
%TA.AperFunction,ComponentPad*%
%ADD16C,1.600000*%
%TD*%
%TA.AperFunction,ComponentPad*%
%ADD17RoundRect,0.250000X0.750000X-0.600000X0.750000X0.600000X-0.750000X0.600000X-0.750000X-0.600000X0*%
%TD*%
%TA.AperFunction,ComponentPad*%
%ADD18O,2.000000X1.700000*%
%TD*%
%TA.AperFunction,ComponentPad*%
%ADD19C,1.440000*%
%TD*%
%TA.AperFunction,ComponentPad*%
%ADD20O,10.400000X8.600000*%
%TD*%
%TA.AperFunction,ComponentPad*%
%ADD21R,2.000000X2.000000*%
%TD*%
%TA.AperFunction,ComponentPad*%
%ADD22C,2.000000*%
%TD*%
%TA.AperFunction,ViaPad*%
%ADD23C,0.800000*%
%TD*%
%TA.AperFunction,Conductor*%
%ADD24C,0.250000*%
%TD*%
%TA.AperFunction,Conductor*%
%ADD25C,0.800000*%
%TD*%
G04 APERTURE END LIST*
D10*
%TO.P,U1,1,SENSE_A_1*%
%TO.N,GND*%
X140080000Y-105620000D03*
D11*
%TO.P,U1,2,OUT1_2*%
%TO.N,Net-(J2-Pin_1)*%
X135000000Y-104350000D03*
%TO.P,U1,3,OUT2_3*%
%TO.N,Net-(J2-Pin_2)*%
X140080000Y-103080000D03*
%TO.P,U1,4,Vs_4*%
%TO.N,Net-(J3-Pin_2)*%
X135000000Y-101810000D03*
%TO.P,U1,5,IN1_5*%
%TO.N,Net-(U1-IN1)*%
X140080000Y-100540000D03*
%TO.P,U1,6,EnA_6*%
%TO.N,Net-(U1-EnA)*%
X135000000Y-99270000D03*
%TO.P,U1,7,IN2_7*%
%TO.N,Net-(U1-IN2)*%
X140080000Y-98000000D03*
%TO.P,U1,8,GND_8*%
%TO.N,GND*%
X135000000Y-96730000D03*
%TO.P,U1,9,Vss_9*%
%TO.N,Net-(JST-A1-Pin_1)*%
X140080000Y-95460000D03*
%TO.P,U1,10,IN3_10*%
%TO.N,Net-(U1-IN3)*%
X135000000Y-94190000D03*
%TO.P,U1,11,EnB_11*%
%TO.N,Net-(U1-EnB)*%
X140080000Y-92920000D03*
%TO.P,U1,12,IN4_12*%
%TO.N,Net-(U1-IN4)*%
X135000000Y-91650000D03*
%TO.P,U1,13,OUT3_13*%
%TO.N,Net-(J1-Pin_1)*%
X140080000Y-90380000D03*
%TO.P,U1,14,OUT4_14*%
%TO.N,Net-(J1-Pin_2)*%
X135000000Y-89110000D03*
%TO.P,U1,15,SENSE_B_15*%
%TO.N,GND*%
X140080000Y-87840000D03*
%TD*%
D12*
%TO.P,JST-A1,1,Pin_1_1*%
%TO.N,Net-(JST-A1-Pin_1)*%
X228500000Y-94500000D03*
D13*
%TO.P,JST-A1,2,Pin_2_2*%
%TO.N,GND*%
X228500000Y-92000000D03*
%TO.P,JST-A1,3,Pin_3_3*%
%TO.N,Net-(JST-A1-Pin_3)*%
X228500000Y-89500000D03*
%TO.P,JST-A1,4,Pin_4_4*%
%TO.N,Net-(JST-A1-Pin_4)*%
X228500000Y-87000000D03*
%TO.P,JST-A1,5,Pin_5_5*%
%TO.N,Net-(JST-A1-Pin_5)*%
X228500000Y-84500000D03*
%TO.P,JST-A1,6,Pin_6_6*%
%TO.N,Net-(JST-A1-Pin_6)*%
X228500000Y-82000000D03*
%TO.P,JST-A1,7,Pin_7_7*%
%TO.N,Net-(JST-A1-Pin_7)*%
X228500000Y-79500000D03*
%TO.P,JST-A1,8,Pin_8_8*%
%TO.N,Net-(JST-A1-Pin_8)*%
X228500000Y-77000000D03*
%TO.P,JST-A1,9,Pin_9_9*%
%TO.N,unconnected-(JST-A1-Pin_9-Pad9)*%
X228500000Y-74500000D03*
%TO.P,JST-A1,10,Pin_10_10*%
%TO.N,unconnected-(JST-A1-Pin_10-Pad10)*%
X228500000Y-72000000D03*
%TD*%
D14*
%TO.P,J1,2,Pin_2_2*%
%TO.N,Net-(J1-Pin_2)*%
X169250000Y-109737500D03*
D15*
%TO.P,J1,1,Pin_1_1*%
%TO.N,Net-(J1-Pin_1)*%
X164250000Y-109737500D03*
%TD*%
D16*
%TO.P,R2,1*%
%TO.N,Net-(U4-D34)*%
X193310000Y-56500000D03*
%TO.P,R2,2*%
%TO.N,Net-(J3-Pin_2)*%
X185690000Y-56500000D03*
%TD*%
%TO.P,R1,1*%
%TO.N,GND*%
X205620000Y-56500000D03*
%TO.P,R1,2*%
%TO.N,Net-(U4-D34)*%
X198000000Y-56500000D03*
%TD*%
D15*
%TO.P,J2,1,Pin_1_1*%
%TO.N,Net-(J2-Pin_1)*%
X149750000Y-109467500D03*
D14*
%TO.P,J2,2,Pin_2_2*%
%TO.N,Net-(J2-Pin_2)*%
X154750000Y-109467500D03*
%TD*%
D17*
%TO.P,J3,1,Pin_1_1*%
%TO.N,GND*%
X118700000Y-72750000D03*
D18*
%TO.P,J3,2,Pin_2_2*%
%TO.N,Net-(J3-Pin_2)*%
X118700000Y-70250000D03*
%TD*%
D19*
%TO.P,RV1,3,3_3*%
%TO.N,GND*%
X153460000Y-56495000D03*
%TO.P,RV1,2,2_2*%
%TO.N,Net-(U3-FB)*%
X156000000Y-56495000D03*
%TO.P,RV1,1,1_1*%
%TO.N,Net-(JST-A1-Pin_1)*%
X158540000Y-56495000D03*
%TD*%
D13*
%TO.P,JST-B1,10,Pin_10_10*%
%TO.N,unconnected-(JST-B1-Pin_10-Pad10)*%
X216200000Y-72250000D03*
%TO.P,JST-B1,9,Pin_9_9*%
%TO.N,unconnected-(JST-B1-Pin_9-Pad9)*%
X216200000Y-74750000D03*
%TO.P,JST-B1,8,Pin_8_8*%
%TO.N,unconnected-(JST-B1-Pin_8-Pad8)*%
X216200000Y-77250000D03*
%TO.P,JST-B1,7,Pin_7_7*%
%TO.N,unconnected-(JST-B1-Pin_7-Pad7)*%
X216200000Y-79750000D03*
%TO.P,JST-B1,6,Pin_6_6*%
%TO.N,unconnected-(JST-B1-Pin_6-Pad6)*%
X216200000Y-82250000D03*
%TO.P,JST-B1,5,Pin_5_5*%
%TO.N,Net-(JST-B1-Pin_5)*%
X216200000Y-84750000D03*
%TO.P,JST-B1,4,Pin_4_4*%
%TO.N,Net-(JST-B1-Pin_4)*%
X216200000Y-87250000D03*
%TO.P,JST-B1,3,Pin_3_3*%
%TO.N,Net-(JST-B1-Pin_3)*%
X216200000Y-89750000D03*
%TO.P,JST-B1,2,Pin_2_2*%
%TO.N,GND*%
X216200000Y-92250000D03*
D12*
%TO.P,JST-B1,1,Pin_1_1*%
%TO.N,Net-(JST-B1-Pin_1)*%
X216200000Y-94750000D03*
%TD*%
D20*
%TO.P,H1,1*%
%TO.N,N/C*%
X122500000Y-109500000D03*
%TD*%
%TO.P,H3,3*%
%TO.N,N/C*%
X224500000Y-57500000D03*
%TD*%
%TO.P,H2,2*%
%TO.N,N/C*%
X224500000Y-109000000D03*
%TD*%
D21*
%TO.P,U4,1,3V3_1*%
%TO.N,Net-(JST-B1-Pin_1)*%
X205200000Y-105515000D03*
D22*
%TO.P,U4,2,GND_2*%
%TO.N,GND*%
X205200000Y-102975000D03*
%TO.P,U4,3,D15_3*%
%TO.N,Net-(JST-B1-Pin_5)*%
X205200000Y-100435000D03*
%TO.P,U4,4,D2_4*%
%TO.N,Net-(JST-A1-Pin_8)*%
X205200000Y-97895000D03*
%TO.P,U4,5,D4_5*%
%TO.N,unconnected-(U4-D4-Pad5)*%
X205200000Y-95355000D03*
%TO.P,U4,6,RX2_6*%
%TO.N,unconnected-(U4-RX2-Pad6)*%
X205200000Y-92815000D03*
%TO.P,U4,7,TX2_7*%
%TO.N,unconnected-(U4-TX2-Pad7)*%
X205200000Y-90275000D03*
%TO.P,U4,8,D5_8*%
%TO.N,unconnected-(U4-D5-Pad8)*%
X205200000Y-87735000D03*
%TO.P,U4,9,D18_9*%
%TO.N,Net-(JST-A1-Pin_7)*%
X205200000Y-85195000D03*
%TO.P,U4,10,D19_10*%
%TO.N,Net-(JST-A1-Pin_6)*%
X205200000Y-82655000D03*
%TO.P,U4,11,D21_11*%
%TO.N,Net-(U1-EnA)*%
X205200000Y-80115000D03*
%TO.P,U4,12,RX0_12*%
%TO.N,unconnected-(U4-RX0-Pad12)*%
X205200000Y-77575000D03*
%TO.P,U4,13,TX0_13*%
%TO.N,unconnected-(U4-TX0-Pad13)*%
X205200000Y-75035000D03*
%TO.P,U4,14,D22_14*%
%TO.N,Net-(JST-A1-Pin_3)*%
X205200000Y-72495000D03*
%TO.P,U4,15,D23_15*%
%TO.N,Net-(JST-A1-Pin_5)*%
X205200000Y-69955000D03*
%TO.P,U4,16,EN_16*%
%TO.N,unconnected-(U4-EN-Pad16)*%
X179800000Y-69955000D03*
%TO.P,U4,17,VP_17*%
%TO.N,unconnected-(U4-VP-Pad17)*%
X179800000Y-72495000D03*
%TO.P,U4,18,VN_18*%
%TO.N,unconnected-(U4-VN-Pad18)*%
X179800000Y-75035000D03*
%TO.P,U4,19,D34_19*%
%TO.N,Net-(U4-D34)*%
X179800000Y-77575000D03*
%TO.P,U4,20,D35_20*%
%TO.N,Net-(JST-A1-Pin_4)*%
X179800000Y-80115000D03*
%TO.P,U4,21,D32_21*%
%TO.N,Net-(JST-B1-Pin_3)*%
X179800000Y-82655000D03*
%TO.P,U4,22,D33_22*%
%TO.N,Net-(JST-B1-Pin_4)*%
X179800000Y-85195000D03*
%TO.P,U4,23,D25_23*%
%TO.N,Net-(U1-EnB)*%
X179800000Y-87735000D03*
%TO.P,U4,24,D26_24*%
%TO.N,Net-(U1-IN4)*%
X179800000Y-90275000D03*
%TO.P,U4,25,D27_25*%
%TO.N,Net-(U1-IN3)*%
X179800000Y-92815000D03*
%TO.P,U4,26,D14_26*%
%TO.N,Net-(U1-IN2)*%
X179800000Y-95355000D03*
%TO.P,U4,27,D12_27*%
%TO.N,unconnected-(U4-D12-Pad27)*%
X179800000Y-97895000D03*
%TO.P,U4,28,D13_28*%
%TO.N,Net-(U1-IN1)*%
X179800000Y-100435000D03*
%TO.P,U4,29,GND_29*%
%TO.N,GND*%
X179800000Y-102975000D03*
%TO.P,U4,30,VIN_30*%
%TO.N,Net-(JST-A1-Pin_1)*%
X179800000Y-105515000D03*
%TD*%
D20*
%TO.P,H4,1*%
%TO.N,N/C*%
X122000000Y-58000000D03*
%TD*%
D23*
%TO.N,Net-(U1-IN3)*%
X134000000Y-79000000D03*
X175976100Y-78199600D03*
%TO.N,Net-(U1-EnA)*%
X205293700Y-109213800D03*
X141706500Y-112333200D03*
%TO.N,Net-(U1-IN4)*%
X138954100Y-80715500D03*
X177143600Y-77732700D03*
%TO.N,Net-(U3-FB)*%
X157603300Y-70043700D03*
%TO.N,Net-(JST-B1-Pin_4)*%
X202380200Y-84348500D03*
%TO.N,Net-(JST-B1-Pin_3)*%
X201319500Y-85421700D03*
%TO.N,Net-(JST-A1-Pin_3)*%
X209203900Y-89134100D03*
%TO.N,Net-(JST-A1-Pin_7)*%
X226330800Y-84242400D03*
%TO.N,Net-(JST-A1-Pin_8)*%
X224715300Y-96505900D03*
%TO.N,Net-(JST-A1-Pin_4)*%
X201317900Y-77732700D03*
%TO.N,Net-(J1-Pin_2)*%
X169525900Y-81577200D03*
%TO.N,Net-(J1-Pin_1)*%
X157370500Y-85609600D03*
%TO.N,Net-(J2-Pin_2)*%
X157603300Y-96767600D03*
%TO.N,Net-(J3-Pin_2)*%
X149942700Y-88009300D03*
X150246300Y-97166700D03*
X150046700Y-82176000D03*
%TO.N,GND*%
X125000000Y-96433600D03*
X153891000Y-89500000D03*
X117011600Y-84025200D03*
X153629100Y-77732700D03*
X141706500Y-77732700D03*
%TO.N,Net-(JST-A1-Pin_1)*%
X177143600Y-96955200D03*
%TD*%
%TO.N,Net-(U1-IN3)*%
D24*
X175976100Y-88991100D02*
X175976100Y-78199600D01*
X179800000Y-92815000D02*
X175976100Y-88991100D01*
%TO.N,Net-(U1-EnA)*%
X203341700Y-107261800D02*
X205293700Y-109213800D01*
X203341700Y-81973300D02*
X203341700Y-107261800D01*
X205200000Y-80115000D02*
X203341700Y-81973300D01*
X136789400Y-101059400D02*
X135000000Y-99270000D01*
X136789400Y-107416100D02*
X136789400Y-101059400D01*
X141706500Y-112333200D02*
X136789400Y-107416100D01*
%TO.N,Net-(U1-IN4)*%
X138232500Y-81437100D02*
X138954100Y-80715500D01*
X138232500Y-88417500D02*
X138232500Y-81437100D01*
X135000000Y-91650000D02*
X138232500Y-88417500D01*
X177143600Y-87618600D02*
X177143600Y-77732700D01*
X179800000Y-90275000D02*
X177143600Y-87618600D01*
%TO.N,Net-(U3-FB)*%
X157603300Y-58098300D02*
X157603300Y-70043700D01*
X156000000Y-56495000D02*
X157603300Y-58098300D01*
%TO.N,Net-(U4-D34)*%
X191204400Y-56500000D02*
X193310000Y-56500000D01*
X183046900Y-64657500D02*
X191204400Y-56500000D01*
X183046900Y-74328100D02*
X183046900Y-64657500D01*
X179800000Y-77575000D02*
X183046900Y-74328100D01*
%TO.N,Net-(JST-B1-Pin_5)*%
X208155200Y-97479800D02*
X205200000Y-100435000D01*
X208155200Y-93408200D02*
X208155200Y-97479800D01*
X215586700Y-85976700D02*
X208155200Y-93408200D01*
X216200000Y-85976700D02*
X215586700Y-85976700D01*
X216200000Y-84750000D02*
X216200000Y-85976700D01*
%TO.N,Net-(JST-B1-Pin_4)*%
X202653300Y-84075400D02*
X202380200Y-84348500D01*
X202653300Y-65607900D02*
X202653300Y-84075400D01*
X203876900Y-64384300D02*
X202653300Y-65607900D01*
X205727700Y-64384300D02*
X203876900Y-64384300D01*
X206918400Y-65575000D02*
X205727700Y-64384300D01*
X206918400Y-72548800D02*
X206918400Y-65575000D01*
X207897700Y-73528100D02*
X206918400Y-72548800D01*
X207897700Y-75852400D02*
X207897700Y-73528100D01*
X215522000Y-83476700D02*
X207897700Y-75852400D01*
X216790600Y-83476700D02*
X215522000Y-83476700D01*
X217551700Y-84237800D02*
X216790600Y-83476700D01*
X217551700Y-85898300D02*
X217551700Y-84237800D01*
X216200000Y-87250000D02*
X217551700Y-85898300D01*
%TO.N,Net-(JST-B1-Pin_3)*%
X218006100Y-91556100D02*
X216200000Y-89750000D01*
X218006100Y-97617800D02*
X218006100Y-91556100D01*
X205598900Y-110025000D02*
X218006100Y-97617800D01*
X204932100Y-110025000D02*
X205598900Y-110025000D01*
X201319500Y-106412400D02*
X204932100Y-110025000D01*
X201319500Y-85421700D02*
X201319500Y-106412400D01*
%TO.N,Net-(JST-B1-Pin_1)*%
X205200000Y-105515000D02*
X206576700Y-105515000D01*
X206576700Y-104373300D02*
X216200000Y-94750000D01*
X206576700Y-105515000D02*
X206576700Y-104373300D01*
%TO.N,Net-(JST-A1-Pin_3)*%
X207292200Y-87222400D02*
X209203900Y-89134100D01*
X207292200Y-74587200D02*
X207292200Y-87222400D01*
X205200000Y-72495000D02*
X207292200Y-74587200D01*
%TO.N,Net-(JST-A1-Pin_7)*%
X226330800Y-82282500D02*
X226330800Y-84242400D01*
X227886600Y-80726700D02*
X226330800Y-82282500D01*
X228500000Y-80726700D02*
X227886600Y-80726700D01*
X228500000Y-79500000D02*
X228500000Y-80726700D01*
%TO.N,Net-(JST-A1-Pin_8)*%
X224715300Y-91363200D02*
X224715300Y-96505900D01*
X227851800Y-88226700D02*
X224715300Y-91363200D01*
X229211900Y-88226700D02*
X227851800Y-88226700D01*
X229863500Y-87575100D02*
X229211900Y-88226700D01*
X229863500Y-78976900D02*
X229863500Y-87575100D01*
X229113300Y-78226700D02*
X229863500Y-78976900D01*
X228500000Y-78226700D02*
X229113300Y-78226700D01*
X228500000Y-77000000D02*
X228500000Y-78226700D01*
%TO.N,Net-(JST-A1-Pin_4)*%
X228500000Y-87000000D02*
X228500000Y-85773300D01*
X226763300Y-85773300D02*
X228500000Y-85773300D01*
X219490000Y-78500000D02*
X226763300Y-85773300D01*
X215568000Y-78500000D02*
X219490000Y-78500000D01*
X207639600Y-70571600D02*
X215568000Y-78500000D01*
X207639600Y-65586500D02*
X207639600Y-70571600D01*
X205935700Y-63882600D02*
X207639600Y-65586500D01*
X203669000Y-63882600D02*
X205935700Y-63882600D01*
X202151600Y-65400000D02*
X203669000Y-63882600D01*
X202151600Y-76899000D02*
X202151600Y-65400000D01*
X201317900Y-77732700D02*
X202151600Y-76899000D01*
%TO.N,Net-(J1-Pin_2)*%
D25*
X169525900Y-109461600D02*
X169525900Y-81577200D01*
X169250000Y-109737500D02*
X169525900Y-109461600D01*
%TO.N,Net-(J1-Pin_1)*%
X164250000Y-92489100D02*
X164250000Y-109737500D01*
X157370500Y-85609600D02*
X164250000Y-92489100D01*
%TO.N,Net-(J2-Pin_2)*%
X140080000Y-103080000D02*
X154750000Y-103080000D01*
X154750000Y-99620900D02*
X154750000Y-103080000D01*
X157603300Y-96767600D02*
X154750000Y-99620900D01*
X154750000Y-103080000D02*
X154750000Y-109467500D01*
%TO.N,Net-(J3-Pin_2)*%
X150246300Y-88312900D02*
X150246300Y-97166700D01*
X149942700Y-88009300D02*
X150246300Y-88312900D01*
X150046700Y-87905300D02*
X150046700Y-82176000D01*
X149942700Y-88009300D02*
X150046700Y-87905300D01*
%TO.N,GND*%
X118700000Y-84025200D02*
X117011600Y-84025200D01*
X118700000Y-84025200D02*
X118700000Y-72750000D01*
X205660200Y-102975000D02*
X205200000Y-102975000D01*
X211242500Y-97392700D02*
X205660200Y-102975000D01*
X211242500Y-95130800D02*
X211242500Y-97392700D01*
X214123300Y-92250000D02*
X211242500Y-95130800D01*
X216200000Y-92250000D02*
X214123300Y-92250000D01*
X118700000Y-90133600D02*
X125000000Y-96433600D01*
X118700000Y-84025200D02*
X118700000Y-90133600D01*
X125296400Y-96730000D02*
X135000000Y-96730000D01*
X125000000Y-96433600D02*
X125296400Y-96730000D01*
X138078300Y-99439300D02*
X138078300Y-105620000D01*
X135369000Y-96730000D02*
X138078300Y-99439300D01*
X135000000Y-96730000D02*
X135369000Y-96730000D01*
X140080000Y-105620000D02*
X138078300Y-105620000D01*
X153460000Y-77563600D02*
X153460000Y-56495000D01*
X153629100Y-77732700D02*
X153460000Y-77563600D01*
X153629100Y-89238100D02*
X153629100Y-77732700D01*
X153891000Y-89500000D02*
X153629100Y-89238100D01*
X141706500Y-86213500D02*
X141706500Y-77732700D01*
X140080000Y-87840000D02*
X141706500Y-86213500D01*
%TO.N,Net-(JST-A1-Pin_1)*%
X177143600Y-103292700D02*
X177143600Y-96955200D01*
X179365900Y-105515000D02*
X177143600Y-103292700D01*
X179800000Y-105515000D02*
X179365900Y-105515000D01*
X140456600Y-95460000D02*
X140080000Y-95460000D01*
X148441000Y-87475600D02*
X140456600Y-95460000D01*
X148441000Y-58926800D02*
X148441000Y-87475600D01*
X152728700Y-54639100D02*
X148441000Y-58926800D01*
X156763700Y-54639100D02*
X152728700Y-54639100D01*
X158540000Y-56415400D02*
X156763700Y-54639100D01*
X158540000Y-56495000D02*
X158540000Y-56415400D01*
%TO.N,Net-(U1-IN3)*%
D24*
X133217000Y-92407000D02*
X135000000Y-94190000D01*
X133217000Y-79783000D02*
X133217000Y-92407000D01*
X134000000Y-79000000D02*
X133217000Y-79783000D01*
%TD*%
M02*
